<svg xmlns="http://www.w3.org/2000/svg" xmlns:xlink="http://www.w3.org/1999/xlink" width="760" height="211.97"><rect width="760" height="211.97" rx="5" ry="5" class="a"/><svg y="0%" x="0%"><circle cx="20" cy="20" r="6" fill="#ff5f58"/><circle cx="40" cy="20" r="6" fill="#ffbd2e"/><circle cx="60" cy="20" r="6" fill="#18c132"/></svg><svg height="151.97" viewBox="0 0 70 15.197" width="700" x="25" xmlns="http://www.w3.org/2000/svg" xmlns:xlink="http://www.w3.org/1999/xlink" y="50"><style>@keyframes k{0%{transform:translateX(-70px)}13.3%{transform:translateX(-140px)}13.7%{transform:translateX(-210px)}14%{transform:translateX(-280px)}14.3%{transform:translateX(-350px)}14.7%{transform:translateX(-420px)}15%{transform:translateX(-490px)}15.3%{transform:translateX(-560px)}15.7%{transform:translateX(-630px)}16%{transform:translateX(-700px)}16.3%{transform:translateX(-770px)}16.7%{transform:translateX(-840px)}17%{transform:translateX(-910px)}17.3%{transform:translateX(-980px)}17.7%{transform:translateX(-1050px)}18%{transform:translateX(-1120px)}18.3%{transform:translateX(-1190px)}18.7%{transform:translateX(-1260px)}19%{transform:translateX(-1330px)}19.3%{transform:translateX(-1400px)}26.3%{transform:translateX(-2870px)}20%{transform:translateX(-1540px)}20.3%{transform:translateX(-1610px)}20.7%{transform:translateX(-1680px)}21%{transform:translateX(-1750px)}21.3%{transform:translateX(-1820px)}21.7%{transform:translateX(-1890px)}22%{transform:translateX(-1960px)}22.3%{transform:translateX(-2030px)}22.7%{transform:translateX(-2100px)}23%{transform:translateX(-2170px)}23.3%{transform:translateX(-2240px)}23.7%{transform:translateX(-2310px)}24%{transform:translateX(-2380px)}24.3%{transform:translateX(-2450px)}24.7%{transform:translateX(-2520px)}25%{transform:translateX(-2590px)}25.3%{transform:translateX(-2660px)}25.7%{transform:translateX(-2730px)}26%{transform:translateX(-2800px)}26.7%{transform:translateX(-2940px)}27%{transform:translateX(-3010px)}27.3%{transform:translateX(-3080px)}27.7%{transform:translateX(-3150px)}28%{transform:translateX(-3220px)}28.3%{transform:translateX(-3290px)}28.7%{transform:translateX(-3360px)}29.7%{transform:translateX(-3570px)}29.3%{transform:translateX(-3500px)}40%{transform:translateX(-3640px)}46.7%{transform:translateX(-3710px)}50%{transform:translateX(-3780px)}60%{transform:translateX(-3850px)}66.7%{transform:translateX(-3990px)}to{transform:translateX(-4060px)}}.a{fill:#282d35}.f,.g,.h{white-space:pre}.f{fill:#a8cc8c;font-weight:700}.g,.h{fill:#b9c0cb}.h{fill:#71bef2;font-weight:700}</style><g font-family="Monaco,Consolas,Menlo,'Bitstream Vera Sans Mono','Powerline Symbols',monospace" font-size="1.67"><defs><symbol id="1"><text y="1.67" class="f">pi@mainsailos</text><text x="13.026" y="1.67" class="g">:</text><text x="14.028" y="1.67" class="h">~</text><text x="16.032" y="1.67" class="h">$</text></symbol><symbol id="2"><text y="1.67" class="f">pi@mainsailos</text><text x="13.026" y="1.67" class="g">:</text><text x="14.028" y="1.67" class="h">~</text><text x="16.032" y="1.67" class="h">$</text><text x="18.036" y="1.67" class="g">python3</text></symbol><symbol id="3"><text y="1.67" class="f">pi@mainsailos</text><text x="13.026" y="1.67" class="g">:</text><text x="14.028" y="1.67" class="h">~</text><text x="16.032" y="1.67" class="h">$</text><text x="18.036" y="1.67" class="g">python3</text><text x="26.052" y="1.67" class="g">~/CanBoot/scripts/flash_can.py</text></symbol><symbol id="4"><text y="1.67" class="f">pi@mainsailos</text><text x="13.026" y="1.67" class="g">:</text><text x="14.028" y="1.67" class="h">~</text><text x="16.032" y="1.67" class="h">$</text><text x="18.036" y="1.67" class="g">python3</text><text x="26.052" y="1.67" class="g">~/CanBoot/scripts/flash_can.py</text><text x="57.114" y="1.67" class="g">-i</text></symbol><symbol id="5"><text y="1.67" class="f">pi@mainsailos</text><text x="13.026" y="1.67" class="g">:</text><text x="14.028" y="1.67" class="h">~</text><text x="16.032" y="1.67" class="h">$</text><text x="18.036" y="1.67" class="g">python3</text><text x="26.052" y="1.67" class="g">~/CanBoot/scripts/flash_can.py</text><text x="57.114" y="1.67" class="g">-i</text><text x="60.12" y="1.67" class="g">can0</text></symbol><symbol id="6"><text y="1.67" class="f">pi@mainsailos</text><text x="13.026" y="1.67" class="g">:</text><text x="14.028" y="1.67" class="h">~</text><text x="16.032" y="1.67" class="h">$</text><text x="18.036" y="1.67" class="g">python3</text><text x="26.052" y="1.67" class="g">~/CanBoot/scripts/flash_can.py</text><text x="57.114" y="1.67" class="g">-i</text><text x="60.12" y="1.67" class="g">can0</text><text x="65.13" y="1.67" class="g">-q</text></symbol><symbol id="7"><text y="1.67" class="g">Resetting</text><text x="10.02" y="1.67" class="g">all</text><text x="14.028" y="1.67" class="g">bootloader</text><text x="25.05" y="1.67" class="g">node</text><text x="30.06" y="1.67" class="g">IDs...</text></symbol><symbol id="8"><text y="1.67" class="g">Checking</text><text x="9.018" y="1.67" class="g">for</text><text x="13.026" y="1.67" class="g">canboot</text><text x="21.042" y="1.67" class="g">nodes...</text></symbol><symbol id="9"><text y="1.67" class="g">Detected</text><text x="9.018" y="1.67" class="g">UUID:</text><text x="15.03" y="1.67" class="g">0d8aa3b78eab,</text><text x="29.058" y="1.67" class="g">Application:</text><text x="42.084" y="1.67" class="g">CanBoot</text></symbol><symbol id="10"><text y="1.67" class="g">Query</text><text x="6.012" y="1.67" class="g">Complete</text></symbol><symbol id="a"><path fill="transparent" d="M0 0h70v8H0z"/></symbol><symbol id="b"><path fill="#6f7683" d="M0 0h1.102v2.171H0z"/></symbol></defs><path class="a" d="M0 0h70v15.197H0z"/><g style="animation-duration:15s;animation-iteration-count:infinite;animation-name:k;animation-timing-function:steps(1,end)"><svg width="4130"><svg><use xlink:href="#a"/><use xlink:href="#b" x="-.004"/></svg><svg x="70"><use xlink:href="#a"/><use xlink:href="#b" x="17.996"/><use xlink:href="#1"/></svg><svg x="140"><use xlink:href="#a"/><use xlink:href="#b" x="18.996"/><text y="1.67" class="f">pi@mainsailos</text><text x="13.026" y="1.67" class="g">:</text><text x="14.028" y="1.67" class="h">~</text><text x="16.032" y="1.67" class="h">$</text><text x="18.036" y="1.67" class="g">p</text></svg><svg x="210"><use xlink:href="#a"/><use xlink:href="#b" x="19.996"/><text y="1.67" class="f">pi@mainsailos</text><text x="13.026" y="1.67" class="g">:</text><text x="14.028" y="1.67" class="h">~</text><text x="16.032" y="1.67" class="h">$</text><text x="18.036" y="1.67" class="g">py</text></svg><svg x="280"><use xlink:href="#a"/><use xlink:href="#b" x="20.996"/><text y="1.67" class="f">pi@mainsailos</text><text x="13.026" y="1.67" class="g">:</text><text x="14.028" y="1.67" class="h">~</text><text x="16.032" y="1.67" class="h">$</text><text x="18.036" y="1.67" class="g">pyt</text></svg><svg x="350"><use xlink:href="#a"/><use xlink:href="#b" x="21.996"/><text y="1.67" class="f">pi@mainsailos</text><text x="13.026" y="1.67" class="g">:</text><text x="14.028" y="1.67" class="h">~</text><text x="16.032" y="1.67" class="h">$</text><text x="18.036" y="1.67" class="g">pyth</text></svg><svg x="420"><use xlink:href="#a"/><use xlink:href="#b" x="22.996"/><text y="1.67" class="f">pi@mainsailos</text><text x="13.026" y="1.67" class="g">:</text><text x="14.028" y="1.67" class="h">~</text><text x="16.032" y="1.67" class="h">$</text><text x="18.036" y="1.67" class="g">pytho</text></svg><svg x="490"><use xlink:href="#a"/><use xlink:href="#b" x="23.996"/><text y="1.67" class="f">pi@mainsailos</text><text x="13.026" y="1.67" class="g">:</text><text x="14.028" y="1.67" class="h">~</text><text x="16.032" y="1.67" class="h">$</text><text x="18.036" y="1.67" class="g">python</text></svg><svg x="560"><use xlink:href="#a"/><use xlink:href="#b" x="24.996"/><use xlink:href="#2"/></svg><svg x="630"><use xlink:href="#a"/><use xlink:href="#b" x="25.996"/><use xlink:href="#2"/></svg><svg x="700"><use xlink:href="#a"/><use xlink:href="#b" x="26.996"/><text y="1.67" class="f">pi@mainsailos</text><text x="13.026" y="1.67" class="g">:</text><text x="14.028" y="1.67" class="h">~</text><text x="16.032" y="1.67" class="h">$</text><text x="18.036" y="1.67" class="g">python3</text><text x="26.052" y="1.67" class="g">~</text></svg><svg x="770"><use xlink:href="#a"/><use xlink:href="#b" x="27.996"/><text y="1.67" class="f">pi@mainsailos</text><text x="13.026" y="1.67" class="g">:</text><text x="14.028" y="1.67" class="h">~</text><text x="16.032" y="1.67" class="h">$</text><text x="18.036" y="1.67" class="g">python3</text><text x="26.052" y="1.67" class="g">~/</text></svg><svg x="840"><use xlink:href="#a"/><use xlink:href="#b" x="28.996"/><text y="1.67" class="f">pi@mainsailos</text><text x="13.026" y="1.67" class="g">:</text><text x="14.028" y="1.67" class="h">~</text><text x="16.032" y="1.67" class="h">$</text><text x="18.036" y="1.67" class="g">python3</text><text x="26.052" y="1.67" class="g">~/C</text></svg><svg x="910"><use xlink:href="#a"/><use xlink:href="#b" x="29.996"/><text y="1.67" class="f">pi@mainsailos</text><text x="13.026" y="1.67" class="g">:</text><text x="14.028" y="1.67" class="h">~</text><text x="16.032" y="1.67" class="h">$</text><text x="18.036" y="1.67" class="g">python3</text><text x="26.052" y="1.67" class="g">~/Ca</text></svg><svg x="980"><use xlink:href="#a"/><use xlink:href="#b" x="30.996"/><text y="1.67" class="f">pi@mainsailos</text><text x="13.026" y="1.67" class="g">:</text><text x="14.028" y="1.67" class="h">~</text><text x="16.032" y="1.67" class="h">$</text><text x="18.036" y="1.67" class="g">python3</text><text x="26.052" y="1.67" class="g">~/Can</text></svg><svg x="1050"><use xlink:href="#a"/><use xlink:href="#b" x="31.996"/><text y="1.67" class="f">pi@mainsailos</text><text x="13.026" y="1.67" class="g">:</text><text x="14.028" y="1.67" class="h">~</text><text x="16.032" y="1.67" class="h">$</text><text x="18.036" y="1.67" class="g">python3</text><text x="26.052" y="1.67" class="g">~/CanB</text></svg><svg x="1120"><use xlink:href="#a"/><use xlink:href="#b" x="32.996"/><text y="1.67" class="f">pi@mainsailos</text><text x="13.026" y="1.67" class="g">:</text><text x="14.028" y="1.67" class="h">~</text><text x="16.032" y="1.67" class="h">$</text><text x="18.036" y="1.67" class="g">python3</text><text x="26.052" y="1.67" class="g">~/CanBo</text></svg><svg x="1190"><use xlink:href="#a"/><use xlink:href="#b" x="33.996"/><text y="1.67" class="f">pi@mainsailos</text><text x="13.026" y="1.67" class="g">:</text><text x="14.028" y="1.67" class="h">~</text><text x="16.032" y="1.67" class="h">$</text><text x="18.036" y="1.67" class="g">python3</text><text x="26.052" y="1.67" class="g">~/CanBoo</text></svg><svg x="1260"><use xlink:href="#a"/><use xlink:href="#b" x="34.996"/><text y="1.67" class="f">pi@mainsailos</text><text x="13.026" y="1.67" class="g">:</text><text x="14.028" y="1.67" class="h">~</text><text x="16.032" y="1.67" class="h">$</text><text x="18.036" y="1.67" class="g">python3</text><text x="26.052" y="1.67" class="g">~/CanBoot</text></svg><svg x="1330"><use xlink:href="#a"/><use xlink:href="#b" x="35.996"/><text y="1.67" class="f">pi@mainsailos</text><text x="13.026" y="1.67" class="g">:</text><text x="14.028" y="1.67" class="h">~</text><text x="16.032" y="1.67" class="h">$</text><text x="18.036" y="1.67" class="g">python3</text><text x="26.052" y="1.67" class="g">~/CanBoot/</text></svg><svg x="1400"><use xlink:href="#a"/><use xlink:href="#b" x="36.996"/><text y="1.67" class="f">pi@mainsailos</text><text x="13.026" y="1.67" class="g">:</text><text x="14.028" y="1.67" class="h">~</text><text x="16.032" y="1.67" class="h">$</text><text x="18.036" y="1.67" class="g">python3</text><text x="26.052" y="1.67" class="g">~/CanBoot/s</text></svg><svg x="1470"><use xlink:href="#a"/><use xlink:href="#b" x="37.996"/><text y="1.67" class="f">pi@mainsailos</text><text x="13.026" y="1.67" class="g">:</text><text x="14.028" y="1.67" class="h">~</text><text x="16.032" y="1.67" class="h">$</text><text x="18.036" y="1.67" class="g">python3</text><text x="26.052" y="1.67" class="g">~/CanBoot/sc</text></svg><svg x="1540"><use xlink:href="#a"/><use xlink:href="#b" x="38.996"/><text y="1.67" class="f">pi@mainsailos</text><text x="13.026" y="1.67" class="g">:</text><text x="14.028" y="1.67" class="h">~</text><text x="16.032" y="1.67" class="h">$</text><text x="18.036" y="1.67" class="g">python3</text><text x="26.052" y="1.67" class="g">~/CanBoot/scr</text></svg><svg x="1610"><use xlink:href="#a"/><use xlink:href="#b" x="39.996"/><text y="1.67" class="f">pi@mainsailos</text><text x="13.026" y="1.67" class="g">:</text><text x="14.028" y="1.67" class="h">~</text><text x="16.032" y="1.67" class="h">$</text><text x="18.036" y="1.67" class="g">python3</text><text x="26.052" y="1.67" class="g">~/CanBoot/scri</text></svg><svg x="1680"><use xlink:href="#a"/><use xlink:href="#b" x="40.996"/><text y="1.67" class="f">pi@mainsailos</text><text x="13.026" y="1.67" class="g">:</text><text x="14.028" y="1.67" class="h">~</text><text x="16.032" y="1.67" class="h">$</text><text x="18.036" y="1.67" class="g">python3</text><text x="26.052" y="1.67" class="g">~/CanBoot/scrip</text></svg><svg x="1750"><use xlink:href="#a"/><use xlink:href="#b" x="41.996"/><text y="1.67" class="f">pi@mainsailos</text><text x="13.026" y="1.67" class="g">:</text><text x="14.028" y="1.67" class="h">~</text><text x="16.032" y="1.67" class="h">$</text><text x="18.036" y="1.67" class="g">python3</text><text x="26.052" y="1.67" class="g">~/CanBoot/script</text></svg><svg x="1820"><use xlink:href="#a"/><use xlink:href="#b" x="42.996"/><text y="1.67" class="f">pi@mainsailos</text><text x="13.026" y="1.67" class="g">:</text><text x="14.028" y="1.67" class="h">~</text><text x="16.032" y="1.67" class="h">$</text><text x="18.036" y="1.67" class="g">python3</text><text x="26.052" y="1.67" class="g">~/CanBoot/scripts</text></svg><svg x="1890"><use xlink:href="#a"/><use xlink:href="#b" x="43.996"/><text y="1.67" class="f">pi@mainsailos</text><text x="13.026" y="1.67" class="g">:</text><text x="14.028" y="1.67" class="h">~</text><text x="16.032" y="1.67" class="h">$</text><text x="18.036" y="1.67" class="g">python3</text><text x="26.052" y="1.67" class="g">~/CanBoot/scripts/</text></svg><svg x="1960"><use xlink:href="#a"/><use xlink:href="#b" x="44.996"/><text y="1.67" class="f">pi@mainsailos</text><text x="13.026" y="1.67" class="g">:</text><text x="14.028" y="1.67" class="h">~</text><text x="16.032" y="1.67" class="h">$</text><text x="18.036" y="1.67" class="g">python3</text><text x="26.052" y="1.67" class="g">~/CanBoot/scripts/f</text></svg><svg x="2030"><use xlink:href="#a"/><use xlink:href="#b" x="45.996"/><text y="1.67" class="f">pi@mainsailos</text><text x="13.026" y="1.67" class="g">:</text><text x="14.028" y="1.67" class="h">~</text><text x="16.032" y="1.67" class="h">$</text><text x="18.036" y="1.67" class="g">python3</text><text x="26.052" y="1.67" class="g">~/CanBoot/scripts/fl</text></svg><svg x="2100"><use xlink:href="#a"/><use xlink:href="#b" x="46.996"/><text y="1.67" class="f">pi@mainsailos</text><text x="13.026" y="1.67" class="g">:</text><text x="14.028" y="1.67" class="h">~</text><text x="16.032" y="1.67" class="h">$</text><text x="18.036" y="1.67" class="g">python3</text><text x="26.052" y="1.67" class="g">~/CanBoot/scripts/fla</text></svg><svg x="2170"><use xlink:href="#a"/><use xlink:href="#b" x="47.996"/><text y="1.67" class="f">pi@mainsailos</text><text x="13.026" y="1.67" class="g">:</text><text x="14.028" y="1.67" class="h">~</text><text x="16.032" y="1.67" class="h">$</text><text x="18.036" y="1.67" class="g">python3</text><text x="26.052" y="1.67" class="g">~/CanBoot/scripts/flas</text></svg><svg x="2240"><use xlink:href="#a"/><use xlink:href="#b" x="48.996"/><text y="1.67" class="f">pi@mainsailos</text><text x="13.026" y="1.67" class="g">:</text><text x="14.028" y="1.67" class="h">~</text><text x="16.032" y="1.67" class="h">$</text><text x="18.036" y="1.67" class="g">python3</text><text x="26.052" y="1.67" class="g">~/CanBoot/scripts/flash</text></svg><svg x="2310"><use xlink:href="#a"/><use xlink:href="#b" x="49.996"/><text y="1.67" class="f">pi@mainsailos</text><text x="13.026" y="1.67" class="g">:</text><text x="14.028" y="1.67" class="h">~</text><text x="16.032" y="1.67" class="h">$</text><text x="18.036" y="1.67" class="g">python3</text><text x="26.052" y="1.67" class="g">~/CanBoot/scripts/flash_</text></svg><svg x="2380"><use xlink:href="#a"/><use xlink:href="#b" x="50.996"/><text y="1.67" class="f">pi@mainsailos</text><text x="13.026" y="1.67" class="g">:</text><text x="14.028" y="1.67" class="h">~</text><text x="16.032" y="1.67" class="h">$</text><text x="18.036" y="1.67" class="g">python3</text><text x="26.052" y="1.67" class="g">~/CanBoot/scripts/flash_c</text></svg><svg x="2450"><use xlink:href="#a"/><use xlink:href="#b" x="51.996"/><text y="1.67" class="f">pi@mainsailos</text><text x="13.026" y="1.67" class="g">:</text><text x="14.028" y="1.67" class="h">~</text><text x="16.032" y="1.67" class="h">$</text><text x="18.036" y="1.67" class="g">python3</text><text x="26.052" y="1.67" class="g">~/CanBoot/scripts/flash_ca</text></svg><svg x="2520"><use xlink:href="#a"/><use xlink:href="#b" x="52.996"/><text y="1.67" class="f">pi@mainsailos</text><text x="13.026" y="1.67" class="g">:</text><text x="14.028" y="1.67" class="h">~</text><text x="16.032" y="1.67" class="h">$</text><text x="18.036" y="1.67" class="g">python3</text><text x="26.052" y="1.67" class="g">~/CanBoot/scripts/flash_can</text></svg><svg x="2590"><use xlink:href="#a"/><use xlink:href="#b" x="53.996"/><text y="1.67" class="f">pi@mainsailos</text><text x="13.026" y="1.67" class="g">:</text><text x="14.028" y="1.67" class="h">~</text><text x="16.032" y="1.67" class="h">$</text><text x="18.036" y="1.67" class="g">python3</text><text x="26.052" y="1.67" class="g">~/CanBoot/scripts/flash_can.</text></svg><svg x="2660"><use xlink:href="#a"/><use xlink:href="#b" x="54.996"/><text y="1.67" class="f">pi@mainsailos</text><text x="13.026" y="1.67" class="g">:</text><text x="14.028" y="1.67" class="h">~</text><text x="16.032" y="1.67" class="h">$</text><text x="18.036" y="1.67" class="g">python3</text><text x="26.052" y="1.67" class="g">~/CanBoot/scripts/flash_can.p</text></svg><svg x="2730"><use xlink:href="#a"/><use xlink:href="#b" x="55.996"/><use xlink:href="#3"/></svg><svg x="2800"><use xlink:href="#a"/><use xlink:href="#b" x="56.996"/><use xlink:href="#3"/></svg><svg x="2870"><use xlink:href="#a"/><use xlink:href="#b" x="57.996"/><text y="1.67" class="f">pi@mainsailos</text><text x="13.026" y="1.67" class="g">:</text><text x="14.028" y="1.67" class="h">~</text><text x="16.032" y="1.67" class="h">$</text><text x="18.036" y="1.67" class="g">python3</text><text x="26.052" y="1.67" class="g">~/CanBoot/scripts/flash_can.py</text><text x="57.114" y="1.67" class="g">-</text></svg><svg x="2940"><use xlink:href="#a"/><use xlink:href="#b" x="58.996"/><use xlink:href="#4"/></svg><svg x="3010"><use xlink:href="#a"/><use xlink:href="#b" x="59.996"/><use xlink:href="#4"/></svg><svg x="3080"><use xlink:href="#a"/><use xlink:href="#b" x="60.996"/><text y="1.67" class="f">pi@mainsailos</text><text x="13.026" y="1.67" class="g">:</text><text x="14.028" y="1.67" class="h">~</text><text x="16.032" y="1.67" class="h">$</text><text x="18.036" y="1.67" class="g">python3</text><text x="26.052" y="1.67" class="g">~/CanBoot/scripts/flash_can.py</text><text x="57.114" y="1.67" class="g">-i</text><text x="60.12" y="1.67" class="g">c</text></svg><svg x="3150"><use xlink:href="#a"/><use xlink:href="#b" x="61.996"/><text y="1.67" class="f">pi@mainsailos</text><text x="13.026" y="1.67" class="g">:</text><text x="14.028" y="1.67" class="h">~</text><text x="16.032" y="1.67" class="h">$</text><text x="18.036" y="1.67" class="g">python3</text><text x="26.052" y="1.67" class="g">~/CanBoot/scripts/flash_can.py</text><text x="57.114" y="1.67" class="g">-i</text><text x="60.12" y="1.67" class="g">ca</text></svg><svg x="3220"><use xlink:href="#a"/><use xlink:href="#b" x="62.996"/><text y="1.67" class="f">pi@mainsailos</text><text x="13.026" y="1.67" class="g">:</text><text x="14.028" y="1.67" class="h">~</text><text x="16.032" y="1.67" class="h">$</text><text x="18.036" y="1.67" class="g">python3</text><text x="26.052" y="1.67" class="g">~/CanBoot/scripts/flash_can.py</text><text x="57.114" y="1.67" class="g">-i</text><text x="60.12" y="1.67" class="g">can</text></svg><svg x="3290"><use xlink:href="#a"/><use xlink:href="#b" x="63.996"/><use xlink:href="#5"/></svg><svg x="3360"><use xlink:href="#a"/><use xlink:href="#b" x="64.996"/><use xlink:href="#5"/></svg><svg x="3430"><use xlink:href="#a"/><use xlink:href="#b" x="65.996"/><text y="1.67" class="f">pi@mainsailos</text><text x="13.026" y="1.67" class="g">:</text><text x="14.028" y="1.67" class="h">~</text><text x="16.032" y="1.67" class="h">$</text><text x="18.036" y="1.67" class="g">python3</text><text x="26.052" y="1.67" class="g">~/CanBoot/scripts/flash_can.py</text><text x="57.114" y="1.67" class="g">-i</text><text x="60.12" y="1.67" class="g">can0</text><text x="65.13" y="1.67" class="g">-</text></svg><svg x="3500"><use xlink:href="#a"/><use xlink:href="#b" x="66.996"/><use xlink:href="#6"/></svg><svg x="3570"><use xlink:href="#a"/><use xlink:href="#b" x="67.996"/><use xlink:href="#6"/></svg><svg x="3640"><use xlink:href="#a"/><use xlink:href="#b" x="-.004" y="2.146"/><use xlink:href="#6"/></svg><svg x="3710"><use xlink:href="#a"/><use xlink:href="#b" x="-.004" y="4.317"/><use xlink:href="#6"/><use xlink:href="#7" y="2.171"/></svg><svg x="3780"><use xlink:href="#a"/><use xlink:href="#b" x="-.004" y="6.488"/><use xlink:href="#6"/><use xlink:href="#7" y="2.171"/><use xlink:href="#8" y="4.342"/></svg><svg x="3850"><use xlink:href="#a"/><use xlink:href="#b" x="-.004" y="8.659"/><use xlink:href="#6"/><use xlink:href="#7" y="2.171"/><use xlink:href="#8" y="4.342"/><use xlink:href="#9" y="6.513"/></svg><svg x="3920"><use xlink:href="#a"/><use xlink:href="#b" x="-.004" y="10.83"/><use xlink:href="#6"/><use xlink:href="#7" y="2.171"/><use xlink:href="#8" y="4.342"/><use xlink:href="#9" y="6.513"/><use xlink:href="#10" y="8.684"/></svg><svg x="3990"><use xlink:href="#a"/><use xlink:href="#b" x="-.004" y="13.001"/><use xlink:href="#6"/><use xlink:href="#7" y="2.171"/><use xlink:href="#8" y="4.342"/><use xlink:href="#9" y="6.513"/><use xlink:href="#10" y="8.684"/><use xlink:href="#1" y="10.855"/></svg><svg x="4060"><use xlink:href="#a"/><use xlink:href="#b" x="-.004" y="13.001"/><use xlink:href="#6"/><use xlink:href="#7" y="2.171"/><use xlink:href="#8" y="4.342"/><use xlink:href="#9" y="6.513"/><use xlink:href="#10" y="8.684"/><use xlink:href="#1" y="10.855"/></svg></svg></g></g></svg></svg>