<svg xmlns="http://www.w3.org/2000/svg" xmlns:xlink="http://www.w3.org/1999/xlink" width="860" height="407.36"><rect width="860" height="407.36" rx="5" ry="5" class="a"/><svg y="0%" x="0%"><circle cx="20" cy="20" r="6" fill="#ff5f58"/><circle cx="40" cy="20" r="6" fill="#ffbd2e"/><circle cx="60" cy="20" r="6" fill="#18c132"/></svg><svg height="347.36" viewBox="0 0 80 34.736" width="800" x="25" xmlns="http://www.w3.org/2000/svg" xmlns:xlink="http://www.w3.org/1999/xlink" y="50"><style>@keyframes k{0%{transform:translateX(-80px)}6.67%{transform:translateX(-160px)}6.83%{transform:translateX(-240px)}7%{transform:translateX(-320px)}7.17%{transform:translateX(-400px)}7.33%{transform:translateX(-480px)}7.5%{transform:translateX(-560px)}7.67%{transform:translateX(-640px)}7.83%{transform:translateX(-720px)}8%{transform:translateX(-800px)}8.17%{transform:translateX(-880px)}8.33%{transform:translateX(-960px)}8.5%{transform:translateX(-1040px)}8.67%{transform:translateX(-1120px)}8.83%{transform:translateX(-1200px)}9%{transform:translateX(-1280px)}9.17%{transform:translateX(-1360px)}9.33%{transform:translateX(-1440px)}9.5%{transform:translateX(-1520px)}9.67%{transform:translateX(-1600px)}9.83%{transform:translateX(-1680px)}10%{transform:translateX(-1760px)}10.17%{transform:translateX(-1840px)}10.33%{transform:translateX(-1920px)}16.67%{transform:translateX(-2000px)}18.33%{transform:translateX(-3040px)}20%{transform:translateX(-3120px)}21.67%{transform:translateX(-3200px)}23.33%{transform:translateX(-3280px)}25%{transform:translateX(-3360px)}26.67%{transform:translateX(-3440px)}28.33%{transform:translateX(-3520px)}30%{transform:translateX(-3600px)}31.67%{transform:translateX(-3680px)}33.33%{transform:translateX(-3760px)}35%{transform:translateX(-3840px)}36.67%{transform:translateX(-3920px)}38.33%{transform:translateX(-4000px)}40%{transform:translateX(-4080px)}41.67%{transform:translateX(-4160px)}43.33%{transform:translateX(-4240px)}45%{transform:translateX(-4320px)}46.67%{transform:translateX(-4400px)}48.33%{transform:translateX(-4480px)}50%{transform:translateX(-4560px)}51.67%{transform:translateX(-4640px)}53.33%{transform:translateX(-4720px)}55%{transform:translateX(-4800px)}56.67%{transform:translateX(-4880px)}58.33%{transform:translateX(-4960px)}60%{transform:translateX(-5040px)}to{transform:translateX(-5120px)}}.a{fill:#282d35}.f,.g,.h{white-space:pre}.f{fill:#a8cc8c;font-weight:700}.g,.h{fill:#b9c0cb}.h{fill:#71bef2;font-weight:700}</style><g font-family="Monaco,Consolas,Menlo,'Bitstream Vera Sans Mono','Powerline Symbols',monospace" font-size="1.67"><defs><symbol id="1"><text y="1.67" class="f">pi@mainsailos</text><text x="13.026" y="1.67" class="g">:</text><text x="14.028" y="1.67" class="h">~/candleLight_fw/build</text><text x="37.074" y="1.67" class="h">$</text></symbol><symbol id="2"><text y="1.67" class="f">pi@mainsailos</text><text x="13.026" y="1.67" class="g">:</text><text x="14.028" y="1.67" class="h">~/candleLight_fw/build</text><text x="37.074" y="1.67" class="h">$</text><text x="39.078" y="1.67" class="g">make</text></symbol><symbol id="3"><text y="1.67" class="f">pi@mainsailos</text><text x="13.026" y="1.67" class="g">:</text><text x="14.028" y="1.67" class="h">~/candleLight_fw/build</text><text x="37.074" y="1.67" class="h">$</text><text x="39.078" y="1.67" class="g">make</text><text x="44.088" y="1.67" class="g">flash-budgetcan_fw</text></symbol><symbol id="4"><text y="1.67" class="g">dfu-util</text><text x="9.018" y="1.67" class="g">0.9</text></symbol><symbol id="5"><text y="1.67" class="g">Copyright</text><text x="10.02" y="1.67" class="g">2005-2009</text><text x="20.04" y="1.67" class="g">Weston</text><text x="27.054" y="1.67" class="g">Schmidt,</text><text x="36.072" y="1.67" class="g">Harald</text><text x="43.086" y="1.67" class="g">Welte</text><text x="49.098" y="1.67" class="g">and</text><text x="53.106" y="1.67" class="g">OpenMoko</text><text x="62.124" y="1.67" class="g">Inc.</text></symbol><symbol id="6"><text y="1.67" class="g">Copyright</text><text x="10.02" y="1.67" class="g">2010-2016</text><text x="20.04" y="1.67" class="g">Tormod</text><text x="27.054" y="1.67" class="g">Volden</text><text x="34.068" y="1.67" class="g">and</text><text x="38.076" y="1.67" class="g">Stefan</text><text x="45.09" y="1.67" class="g">Schmidt</text></symbol><symbol id="7"><text y="1.67" class="g">This</text><text x="5.01" y="1.67" class="g">program</text><text x="13.026" y="1.67" class="g">is</text><text x="16.032" y="1.67" class="g">Free</text><text x="21.042" y="1.67" class="g">Software</text><text x="30.06" y="1.67" class="g">and</text><text x="34.068" y="1.67" class="g">has</text><text x="38.076" y="1.67" class="g">ABSOLUTELY</text><text x="49.098" y="1.67" class="g">NO</text><text x="52.104" y="1.67" class="g">WARRANTY</text></symbol><symbol id="8"><text y="1.67" class="g">Please</text><text x="7.014" y="1.67" class="g">report</text><text x="14.028" y="1.67" class="g">bugs</text><text x="19.038" y="1.67" class="g">to</text><text x="22.044" y="1.67" class="g">http://sourceforge.net/p/dfu-util/tickets/</text></symbol><symbol id="9"><text y="1.67" class="g">Match</text><text x="6.012" y="1.67" class="g">vendor</text><text x="13.026" y="1.67" class="g">ID</text><text x="16.032" y="1.67" class="g">from</text><text x="21.042" y="1.67" class="g">file:</text><text x="27.054" y="1.67" class="g">1d50</text></symbol><symbol id="10"><text y="1.67" class="g">Match</text><text x="6.012" y="1.67" class="g">product</text><text x="14.028" y="1.67" class="g">ID</text><text x="17.034" y="1.67" class="g">from</text><text x="22.044" y="1.67" class="g">file:</text><text x="28.056" y="1.67" class="g">606f</text></symbol><symbol id="11"><text y="1.67" class="g">Opening</text><text x="8.016" y="1.67" class="g">DFU</text><text x="12.024" y="1.67" class="g">capable</text><text x="20.04" y="1.67" class="g">USB</text><text x="24.048" y="1.67" class="g">device...</text></symbol><symbol id="12"><text y="1.67" class="g">ID</text><text x="3.006" y="1.67" class="g">0483:df11</text></symbol><symbol id="13"><text y="1.67" class="g">Run-time</text><text x="9.018" y="1.67" class="g">device</text><text x="16.032" y="1.67" class="g">DFU</text><text x="20.04" y="1.67" class="g">version</text><text x="28.056" y="1.67" class="g">011a</text></symbol><symbol id="14"><text y="1.67" class="g">Claiming</text><text x="9.018" y="1.67" class="g">USB</text><text x="13.026" y="1.67" class="g">DFU</text><text x="17.034" y="1.67" class="g">Interface...</text></symbol><symbol id="15"><text y="1.67" class="g">Setting</text><text x="8.016" y="1.67" class="g">Alternate</text><text x="18.036" y="1.67" class="g">Setting</text><text x="26.052" y="1.67" class="g">#0</text><text x="29.058" y="1.67" class="g">...</text></symbol><symbol id="16"><text y="1.67" class="g">Determining</text><text x="12.024" y="1.67" class="g">device</text><text x="19.038" y="1.67" class="g">status:</text><text x="27.054" y="1.67" class="g">state</text><text x="33.066" y="1.67" class="g">=</text><text x="35.07" y="1.67" class="g">dfuIDLE,</text><text x="44.088" y="1.67" class="g">status</text><text x="51.102" y="1.67" class="g">=</text><text x="53.106" y="1.67" class="g">0</text></symbol><symbol id="17"><text y="1.67" class="g">dfuIDLE,</text><text x="9.018" y="1.67" class="g">continuing</text></symbol><symbol id="18"><text y="1.67" class="g">DFU</text><text x="4.008" y="1.67" class="g">mode</text><text x="9.018" y="1.67" class="g">device</text><text x="16.032" y="1.67" class="g">DFU</text><text x="20.04" y="1.67" class="g">version</text><text x="28.056" y="1.67" class="g">011a</text></symbol><symbol id="19"><text y="1.67" class="g">Device</text><text x="7.014" y="1.67" class="g">returned</text><text x="16.032" y="1.67" class="g">transfer</text><text x="25.05" y="1.67" class="g">size</text><text x="30.06" y="1.67" class="g">1024</text></symbol><symbol id="20"><text y="1.67" class="g">DfuSe</text><text x="6.012" y="1.67" class="g">interface</text><text x="16.032" y="1.67" class="g">name:</text><text x="22.044" y="1.67" class="g">&quot;Internal</text><text x="32.064" y="1.67" class="g">Flash</text><text x="40.08" y="1.67" class="g">&quot;</text></symbol><symbol id="21"><text y="1.67" class="g">Downloading</text><text x="12.024" y="1.67" class="g">to</text><text x="15.03" y="1.67" class="g">address</text><text x="23.046" y="1.67" class="g">=</text><text x="25.05" y="1.67" class="g">0x08000000,</text><text x="37.074" y="1.67" class="g">size</text><text x="42.084" y="1.67" class="g">=</text><text x="44.088" y="1.67" class="g">19276</text></symbol><symbol id="22"><text y="1.67" class="g">Download</text><text x="16.032" y="1.67" class="g">[=========================]</text><text x="44.088" y="1.67" class="g">100%</text><text x="56.112" y="1.67" class="g">19276</text><text x="62.124" y="1.67" class="g">bytes</text></symbol><symbol id="23"><text y="1.67" class="g">Download</text><text x="9.018" y="1.67" class="g">done.</text></symbol><symbol id="24"><text y="1.67" class="g">File</text><text x="5.01" y="1.67" class="g">downloaded</text><text x="16.032" y="1.67" class="g">successfully</text></symbol><symbol id="25"><text y="1.67" class="g">Resetting</text><text x="10.02" y="1.67" class="g">USB</text><text x="14.028" y="1.67" class="g">to</text><text x="17.034" y="1.67" class="g">switch</text><text x="24.048" y="1.67" class="g">back</text><text x="29.058" y="1.67" class="g">to</text><text x="32.064" y="1.67" class="g">runtime</text><text x="40.08" y="1.67" class="g">mode</text></symbol><symbol id="26"><text y="1.67" class="g">Built</text><text x="6.012" y="1.67" class="g">target</text><text x="13.026" y="1.67" class="g">flash-budgetcan_fw</text></symbol><symbol id="a"><path fill="transparent" d="M0 0h80v17H0z"/></symbol><symbol id="b"><path fill="#6f7683" d="M0 0h1.102v2.171H0z"/></symbol></defs><path class="a" d="M0 0h80v34.736H0z"/><g style="animation-duration:30s;animation-iteration-count:infinite;animation-name:k;animation-timing-function:steps(1,end)"><svg width="5200"><svg><use xlink:href="#a"/><use xlink:href="#b" x="-.004"/></svg><svg x="80"><use xlink:href="#a"/><use xlink:href="#b" x="38.996"/><use xlink:href="#1"/></svg><svg x="160"><use xlink:href="#a"/><use xlink:href="#b" x="39.996"/><text y="1.67" class="f">pi@mainsailos</text><text x="13.026" y="1.67" class="g">:</text><text x="14.028" y="1.67" class="h">~/candleLight_fw/build</text><text x="37.074" y="1.67" class="h">$</text><text x="39.078" y="1.67" class="g">m</text></svg><svg x="240"><use xlink:href="#a"/><use xlink:href="#b" x="40.996"/><text y="1.67" class="f">pi@mainsailos</text><text x="13.026" y="1.67" class="g">:</text><text x="14.028" y="1.67" class="h">~/candleLight_fw/build</text><text x="37.074" y="1.67" class="h">$</text><text x="39.078" y="1.67" class="g">ma</text></svg><svg x="320"><use xlink:href="#a"/><use xlink:href="#b" x="41.996"/><text y="1.67" class="f">pi@mainsailos</text><text x="13.026" y="1.67" class="g">:</text><text x="14.028" y="1.67" class="h">~/candleLight_fw/build</text><text x="37.074" y="1.67" class="h">$</text><text x="39.078" y="1.67" class="g">mak</text></svg><svg x="400"><use xlink:href="#a"/><use xlink:href="#b" x="42.996"/><use xlink:href="#2"/></svg><svg x="480"><use xlink:href="#a"/><use xlink:href="#b" x="43.996"/><use xlink:href="#2"/></svg><svg x="560"><use xlink:href="#a"/><use xlink:href="#b" x="44.996"/><text y="1.67" class="f">pi@mainsailos</text><text x="13.026" y="1.67" class="g">:</text><text x="14.028" y="1.67" class="h">~/candleLight_fw/build</text><text x="37.074" y="1.67" class="h">$</text><text x="39.078" y="1.67" class="g">make</text><text x="44.088" y="1.67" class="g">f</text></svg><svg x="640"><use xlink:href="#a"/><use xlink:href="#b" x="45.996"/><text y="1.67" class="f">pi@mainsailos</text><text x="13.026" y="1.67" class="g">:</text><text x="14.028" y="1.67" class="h">~/candleLight_fw/build</text><text x="37.074" y="1.67" class="h">$</text><text x="39.078" y="1.67" class="g">make</text><text x="44.088" y="1.67" class="g">fl</text></svg><svg x="720"><use xlink:href="#a"/><use xlink:href="#b" x="46.996"/><text y="1.67" class="f">pi@mainsailos</text><text x="13.026" y="1.67" class="g">:</text><text x="14.028" y="1.67" class="h">~/candleLight_fw/build</text><text x="37.074" y="1.67" class="h">$</text><text x="39.078" y="1.67" class="g">make</text><text x="44.088" y="1.67" class="g">fla</text></svg><svg x="800"><use xlink:href="#a"/><use xlink:href="#b" x="47.996"/><text y="1.67" class="f">pi@mainsailos</text><text x="13.026" y="1.67" class="g">:</text><text x="14.028" y="1.67" class="h">~/candleLight_fw/build</text><text x="37.074" y="1.67" class="h">$</text><text x="39.078" y="1.67" class="g">make</text><text x="44.088" y="1.67" class="g">flas</text></svg><svg x="880"><use xlink:href="#a"/><use xlink:href="#b" x="48.996"/><text y="1.67" class="f">pi@mainsailos</text><text x="13.026" y="1.67" class="g">:</text><text x="14.028" y="1.67" class="h">~/candleLight_fw/build</text><text x="37.074" y="1.67" class="h">$</text><text x="39.078" y="1.67" class="g">make</text><text x="44.088" y="1.67" class="g">flash</text></svg><svg x="960"><use xlink:href="#a"/><use xlink:href="#b" x="49.996"/><text y="1.67" class="f">pi@mainsailos</text><text x="13.026" y="1.67" class="g">:</text><text x="14.028" y="1.67" class="h">~/candleLight_fw/build</text><text x="37.074" y="1.67" class="h">$</text><text x="39.078" y="1.67" class="g">make</text><text x="44.088" y="1.67" class="g">flash-</text></svg><svg x="1040"><use xlink:href="#a"/><use xlink:href="#b" x="50.996"/><text y="1.67" class="f">pi@mainsailos</text><text x="13.026" y="1.67" class="g">:</text><text x="14.028" y="1.67" class="h">~/candleLight_fw/build</text><text x="37.074" y="1.67" class="h">$</text><text x="39.078" y="1.67" class="g">make</text><text x="44.088" y="1.67" class="g">flash-b</text></svg><svg x="1120"><use xlink:href="#a"/><use xlink:href="#b" x="51.996"/><text y="1.67" class="f">pi@mainsailos</text><text x="13.026" y="1.67" class="g">:</text><text x="14.028" y="1.67" class="h">~/candleLight_fw/build</text><text x="37.074" y="1.67" class="h">$</text><text x="39.078" y="1.67" class="g">make</text><text x="44.088" y="1.67" class="g">flash-bu</text></svg><svg x="1200"><use xlink:href="#a"/><use xlink:href="#b" x="52.996"/><text y="1.67" class="f">pi@mainsailos</text><text x="13.026" y="1.67" class="g">:</text><text x="14.028" y="1.67" class="h">~/candleLight_fw/build</text><text x="37.074" y="1.67" class="h">$</text><text x="39.078" y="1.67" class="g">make</text><text x="44.088" y="1.67" class="g">flash-bud</text></svg><svg x="1280"><use xlink:href="#a"/><use xlink:href="#b" x="53.996"/><text y="1.67" class="f">pi@mainsailos</text><text x="13.026" y="1.67" class="g">:</text><text x="14.028" y="1.67" class="h">~/candleLight_fw/build</text><text x="37.074" y="1.67" class="h">$</text><text x="39.078" y="1.67" class="g">make</text><text x="44.088" y="1.67" class="g">flash-budg</text></svg><svg x="1360"><use xlink:href="#a"/><use xlink:href="#b" x="54.996"/><text y="1.67" class="f">pi@mainsailos</text><text x="13.026" y="1.67" class="g">:</text><text x="14.028" y="1.67" class="h">~/candleLight_fw/build</text><text x="37.074" y="1.67" class="h">$</text><text x="39.078" y="1.67" class="g">make</text><text x="44.088" y="1.67" class="g">flash-budge</text></svg><svg x="1440"><use xlink:href="#a"/><use xlink:href="#b" x="55.996"/><text y="1.67" class="f">pi@mainsailos</text><text x="13.026" y="1.67" class="g">:</text><text x="14.028" y="1.67" class="h">~/candleLight_fw/build</text><text x="37.074" y="1.67" class="h">$</text><text x="39.078" y="1.67" class="g">make</text><text x="44.088" y="1.67" class="g">flash-budget</text></svg><svg x="1520"><use xlink:href="#a"/><use xlink:href="#b" x="56.996"/><text y="1.67" class="f">pi@mainsailos</text><text x="13.026" y="1.67" class="g">:</text><text x="14.028" y="1.67" class="h">~/candleLight_fw/build</text><text x="37.074" y="1.67" class="h">$</text><text x="39.078" y="1.67" class="g">make</text><text x="44.088" y="1.67" class="g">flash-budgetc</text></svg><svg x="1600"><use xlink:href="#a"/><use xlink:href="#b" x="57.996"/><text y="1.67" class="f">pi@mainsailos</text><text x="13.026" y="1.67" class="g">:</text><text x="14.028" y="1.67" class="h">~/candleLight_fw/build</text><text x="37.074" y="1.67" class="h">$</text><text x="39.078" y="1.67" class="g">make</text><text x="44.088" y="1.67" class="g">flash-budgetca</text></svg><svg x="1680"><use xlink:href="#a"/><use xlink:href="#b" x="58.996"/><text y="1.67" class="f">pi@mainsailos</text><text x="13.026" y="1.67" class="g">:</text><text x="14.028" y="1.67" class="h">~/candleLight_fw/build</text><text x="37.074" y="1.67" class="h">$</text><text x="39.078" y="1.67" class="g">make</text><text x="44.088" y="1.67" class="g">flash-budgetcan</text></svg><svg x="1760"><use xlink:href="#a"/><use xlink:href="#b" x="59.996"/><text y="1.67" class="f">pi@mainsailos</text><text x="13.026" y="1.67" class="g">:</text><text x="14.028" y="1.67" class="h">~/candleLight_fw/build</text><text x="37.074" y="1.67" class="h">$</text><text x="39.078" y="1.67" class="g">make</text><text x="44.088" y="1.67" class="g">flash-budgetcan_</text></svg><svg x="1840"><use xlink:href="#a"/><use xlink:href="#b" x="60.996"/><text y="1.67" class="f">pi@mainsailos</text><text x="13.026" y="1.67" class="g">:</text><text x="14.028" y="1.67" class="h">~/candleLight_fw/build</text><text x="37.074" y="1.67" class="h">$</text><text x="39.078" y="1.67" class="g">make</text><text x="44.088" y="1.67" class="g">flash-budgetcan_f</text></svg><svg x="1920"><use xlink:href="#a"/><use xlink:href="#b" x="61.996"/><use xlink:href="#3"/></svg><svg x="2000"><use xlink:href="#a"/><use xlink:href="#b" x="-.004" y="2.146"/><use xlink:href="#3"/></svg><svg x="2080"><use xlink:href="#a"/><use xlink:href="#b" x="-.004" y="17.343"/><use xlink:href="#3"/><use xlink:href="#4" y="2.171"/><use xlink:href="#5" y="6.513"/><use xlink:href="#6" y="8.684"/><use xlink:href="#7" y="10.855"/><use xlink:href="#8" y="13.026"/></svg><svg x="2160"><use xlink:href="#a"/><use xlink:href="#b" x="-.004" y="19.514"/><use xlink:href="#3"/><use xlink:href="#4" y="2.171"/><use xlink:href="#5" y="6.513"/><use xlink:href="#6" y="8.684"/><use xlink:href="#7" y="10.855"/><use xlink:href="#8" y="13.026"/><use xlink:href="#9" y="17.368"/></svg><svg x="2240"><use xlink:href="#a"/><use xlink:href="#b" x="-.004" y="21.685"/><use xlink:href="#3"/><use xlink:href="#4" y="2.171"/><use xlink:href="#5" y="6.513"/><use xlink:href="#6" y="8.684"/><use xlink:href="#7" y="10.855"/><use xlink:href="#8" y="13.026"/><use xlink:href="#9" y="17.368"/><use xlink:href="#10" y="19.539"/></svg><svg x="2320"><use xlink:href="#a"/><use xlink:href="#b" x="-.004" y="23.856"/><use xlink:href="#3"/><use xlink:href="#4" y="2.171"/><use xlink:href="#5" y="6.513"/><use xlink:href="#6" y="8.684"/><use xlink:href="#7" y="10.855"/><use xlink:href="#8" y="13.026"/><use xlink:href="#9" y="17.368"/><use xlink:href="#10" y="19.539"/><use xlink:href="#11" y="21.71"/></svg><svg x="2400"><use xlink:href="#a"/><use xlink:href="#b" x="-.004" y="26.027"/><use xlink:href="#3"/><use xlink:href="#4" y="2.171"/><use xlink:href="#5" y="6.513"/><use xlink:href="#6" y="8.684"/><use xlink:href="#7" y="10.855"/><use xlink:href="#8" y="13.026"/><use xlink:href="#9" y="17.368"/><use xlink:href="#10" y="19.539"/><use xlink:href="#11" y="21.71"/><use xlink:href="#12" y="23.881"/></svg><svg x="2480"><use xlink:href="#a"/><use xlink:href="#b" x="-.004" y="28.198"/><use xlink:href="#3"/><use xlink:href="#4" y="2.171"/><use xlink:href="#5" y="6.513"/><use xlink:href="#6" y="8.684"/><use xlink:href="#7" y="10.855"/><use xlink:href="#8" y="13.026"/><use xlink:href="#9" y="17.368"/><use xlink:href="#10" y="19.539"/><use xlink:href="#11" y="21.71"/><use xlink:href="#12" y="23.881"/><use xlink:href="#13" y="26.052"/></svg><svg x="2560"><use xlink:href="#a"/><use xlink:href="#b" x="-.004" y="30.369"/><use xlink:href="#3"/><use xlink:href="#4" y="2.171"/><use xlink:href="#5" y="6.513"/><use xlink:href="#6" y="8.684"/><use xlink:href="#7" y="10.855"/><use xlink:href="#8" y="13.026"/><use xlink:href="#9" y="17.368"/><use xlink:href="#10" y="19.539"/><use xlink:href="#11" y="21.71"/><use xlink:href="#12" y="23.881"/><use xlink:href="#13" y="26.052"/><use xlink:href="#14" y="28.223"/></svg><svg x="2640"><use xlink:href="#a"/><use xlink:href="#b" x="-.004" y="32.54"/><use xlink:href="#3"/><use xlink:href="#4" y="2.171"/><use xlink:href="#5" y="6.513"/><use xlink:href="#6" y="8.684"/><use xlink:href="#7" y="10.855"/><use xlink:href="#8" y="13.026"/><use xlink:href="#9" y="17.368"/><use xlink:href="#10" y="19.539"/><use xlink:href="#11" y="21.71"/><use xlink:href="#12" y="23.881"/><use xlink:href="#13" y="26.052"/><use xlink:href="#14" y="28.223"/><use xlink:href="#15" y="30.394"/></svg><svg x="2720"><use xlink:href="#a"/><use xlink:href="#b" x="-.004" y="34.711"/><use xlink:href="#3"/><use xlink:href="#4" y="2.171"/><use xlink:href="#5" y="6.513"/><use xlink:href="#6" y="8.684"/><use xlink:href="#7" y="10.855"/><use xlink:href="#8" y="13.026"/><use xlink:href="#9" y="17.368"/><use xlink:href="#10" y="19.539"/><use xlink:href="#11" y="21.71"/><use xlink:href="#12" y="23.881"/><use xlink:href="#13" y="26.052"/><use xlink:href="#14" y="28.223"/><use xlink:href="#15" y="30.394"/><use xlink:href="#16" y="32.565"/></svg><svg x="2800"><use xlink:href="#a"/><use xlink:href="#b" x="-.004" y="34.711"/><use xlink:href="#4"/><use xlink:href="#5" y="4.342"/><use xlink:href="#6" y="6.513"/><use xlink:href="#7" y="8.684"/><use xlink:href="#8" y="10.855"/><use xlink:href="#9" y="15.197"/><use xlink:href="#10" y="17.368"/><use xlink:href="#11" y="19.539"/><use xlink:href="#12" y="21.71"/><use xlink:href="#13" y="23.881"/><use xlink:href="#14" y="26.052"/><use xlink:href="#15" y="28.223"/><use xlink:href="#16" y="30.394"/><use xlink:href="#17" y="32.565"/></svg><svg x="2880"><use xlink:href="#a"/><use xlink:href="#b" x="-.004" y="34.711"/><use xlink:href="#5" y="2.171"/><use xlink:href="#6" y="4.342"/><use xlink:href="#7" y="6.513"/><use xlink:href="#8" y="8.684"/><use xlink:href="#9" y="13.026"/><use xlink:href="#10" y="15.197"/><use xlink:href="#11" y="17.368"/><use xlink:href="#12" y="19.539"/><use xlink:href="#13" y="21.71"/><use xlink:href="#14" y="23.881"/><use xlink:href="#15" y="26.052"/><use xlink:href="#16" y="28.223"/><use xlink:href="#17" y="30.394"/><use xlink:href="#18" y="32.565"/></svg><svg x="2960"><use xlink:href="#a"/><use xlink:href="#b" x="-.004" y="34.711"/><use xlink:href="#5"/><use xlink:href="#6" y="2.171"/><use xlink:href="#7" y="4.342"/><use xlink:href="#8" y="6.513"/><use xlink:href="#9" y="10.855"/><use xlink:href="#10" y="13.026"/><use xlink:href="#11" y="15.197"/><use xlink:href="#12" y="17.368"/><use xlink:href="#13" y="19.539"/><use xlink:href="#14" y="21.71"/><use xlink:href="#15" y="23.881"/><use xlink:href="#16" y="26.052"/><use xlink:href="#17" y="28.223"/><use xlink:href="#18" y="30.394"/><use xlink:href="#19" y="32.565"/></svg><svg x="3040"><use xlink:href="#a"/><use xlink:href="#b" x="-.004" y="34.711"/><use xlink:href="#6"/><use xlink:href="#7" y="2.171"/><use xlink:href="#8" y="4.342"/><use xlink:href="#9" y="8.684"/><use xlink:href="#10" y="10.855"/><use xlink:href="#11" y="13.026"/><use xlink:href="#12" y="15.197"/><use xlink:href="#13" y="17.368"/><use xlink:href="#14" y="19.539"/><use xlink:href="#15" y="21.71"/><use xlink:href="#16" y="23.881"/><use xlink:href="#17" y="26.052"/><use xlink:href="#18" y="28.223"/><use xlink:href="#19" y="30.394"/><use xlink:href="#20" y="32.565"/></svg><svg x="3120"><use xlink:href="#a"/><use xlink:href="#b" x="-.004" y="30.369"/><use xlink:href="#9" y="2.171"/><use xlink:href="#10" y="4.342"/><use xlink:href="#11" y="6.513"/><use xlink:href="#12" y="8.684"/><use xlink:href="#13" y="10.855"/><use xlink:href="#14" y="13.026"/><use xlink:href="#15" y="15.197"/><use xlink:href="#16" y="17.368"/><use xlink:href="#17" y="19.539"/><use xlink:href="#18" y="21.71"/><use xlink:href="#19" y="23.881"/><use xlink:href="#20" y="26.052"/><use xlink:href="#21" y="28.223"/></svg><svg x="3200"><use xlink:href="#a"/><use xlink:href="#b" x="66.996" y="30.369"/><use xlink:href="#9" y="2.171"/><use xlink:href="#10" y="4.342"/><use xlink:href="#11" y="6.513"/><use xlink:href="#12" y="8.684"/><use xlink:href="#13" y="10.855"/><use xlink:href="#14" y="13.026"/><use xlink:href="#15" y="15.197"/><use xlink:href="#16" y="17.368"/><use xlink:href="#17" y="19.539"/><use xlink:href="#18" y="21.71"/><use xlink:href="#19" y="23.881"/><use xlink:href="#20" y="26.052"/><use xlink:href="#21" y="28.223"/><text y="32.064" class="g">Download</text><text x="16.032" y="32.064" class="g">[</text><text x="42.084" y="32.064" class="g">]</text><text x="46.092" y="32.064" class="g">0%</text><text x="60.12" y="32.064" class="g">0</text><text x="62.124" y="32.064" class="g">bytes</text></svg><svg x="3280"><use xlink:href="#a"/><use xlink:href="#b" x="66.996" y="30.369"/><use xlink:href="#9" y="2.171"/><use xlink:href="#10" y="4.342"/><use xlink:href="#11" y="6.513"/><use xlink:href="#12" y="8.684"/><use xlink:href="#13" y="10.855"/><use xlink:href="#14" y="13.026"/><use xlink:href="#15" y="15.197"/><use xlink:href="#16" y="17.368"/><use xlink:href="#17" y="19.539"/><use xlink:href="#18" y="21.71"/><use xlink:href="#19" y="23.881"/><use xlink:href="#20" y="26.052"/><use xlink:href="#21" y="28.223"/><text y="32.064" class="g">Download</text><text x="16.032" y="32.064" class="g">[=</text><text x="42.084" y="32.064" class="g">]</text><text x="46.092" y="32.064" class="g">5%</text><text x="57.114" y="32.064" class="g">1024</text><text x="62.124" y="32.064" class="g">bytes</text></svg><svg x="3360"><use xlink:href="#a"/><use xlink:href="#b" x="66.996" y="30.369"/><use xlink:href="#9" y="2.171"/><use xlink:href="#10" y="4.342"/><use xlink:href="#11" y="6.513"/><use xlink:href="#12" y="8.684"/><use xlink:href="#13" y="10.855"/><use xlink:href="#14" y="13.026"/><use xlink:href="#15" y="15.197"/><use xlink:href="#16" y="17.368"/><use xlink:href="#17" y="19.539"/><use xlink:href="#18" y="21.71"/><use xlink:href="#19" y="23.881"/><use xlink:href="#20" y="26.052"/><use xlink:href="#21" y="28.223"/><text y="32.064" class="g">Download</text><text x="16.032" y="32.064" class="g">[==</text><text x="42.084" y="32.064" class="g">]</text><text x="45.09" y="32.064" class="g">10%</text><text x="57.114" y="32.064" class="g">2048</text><text x="62.124" y="32.064" class="g">bytes</text></svg><svg x="3440"><use xlink:href="#a"/><use xlink:href="#b" x="66.996" y="30.369"/><use xlink:href="#9" y="2.171"/><use xlink:href="#10" y="4.342"/><use xlink:href="#11" y="6.513"/><use xlink:href="#12" y="8.684"/><use xlink:href="#13" y="10.855"/><use xlink:href="#14" y="13.026"/><use xlink:href="#15" y="15.197"/><use xlink:href="#16" y="17.368"/><use xlink:href="#17" y="19.539"/><use xlink:href="#18" y="21.71"/><use xlink:href="#19" y="23.881"/><use xlink:href="#20" y="26.052"/><use xlink:href="#21" y="28.223"/><text y="32.064" class="g">Download</text><text x="16.032" y="32.064" class="g">[===</text><text x="42.084" y="32.064" class="g">]</text><text x="45.09" y="32.064" class="g">15%</text><text x="57.114" y="32.064" class="g">3072</text><text x="62.124" y="32.064" class="g">bytes</text></svg><svg x="3520"><use xlink:href="#a"/><use xlink:href="#b" x="66.996" y="30.369"/><use xlink:href="#9" y="2.171"/><use xlink:href="#10" y="4.342"/><use xlink:href="#11" y="6.513"/><use xlink:href="#12" y="8.684"/><use xlink:href="#13" y="10.855"/><use xlink:href="#14" y="13.026"/><use xlink:href="#15" y="15.197"/><use xlink:href="#16" y="17.368"/><use xlink:href="#17" y="19.539"/><use xlink:href="#18" y="21.71"/><use xlink:href="#19" y="23.881"/><use xlink:href="#20" y="26.052"/><use xlink:href="#21" y="28.223"/><text y="32.064" class="g">Download</text><text x="16.032" y="32.064" class="g">[=====</text><text x="42.084" y="32.064" class="g">]</text><text x="45.09" y="32.064" class="g">21%</text><text x="57.114" y="32.064" class="g">4096</text><text x="62.124" y="32.064" class="g">bytes</text></svg><svg x="3600"><use xlink:href="#a"/><use xlink:href="#b" x="66.996" y="30.369"/><use xlink:href="#9" y="2.171"/><use xlink:href="#10" y="4.342"/><use xlink:href="#11" y="6.513"/><use xlink:href="#12" y="8.684"/><use xlink:href="#13" y="10.855"/><use xlink:href="#14" y="13.026"/><use xlink:href="#15" y="15.197"/><use xlink:href="#16" y="17.368"/><use xlink:href="#17" y="19.539"/><use xlink:href="#18" y="21.71"/><use xlink:href="#19" y="23.881"/><use xlink:href="#20" y="26.052"/><use xlink:href="#21" y="28.223"/><text y="32.064" class="g">Download</text><text x="16.032" y="32.064" class="g">[======</text><text x="42.084" y="32.064" class="g">]</text><text x="45.09" y="32.064" class="g">26%</text><text x="57.114" y="32.064" class="g">5120</text><text x="62.124" y="32.064" class="g">bytes</text></svg><svg x="3680"><use xlink:href="#a"/><use xlink:href="#b" x="66.996" y="30.369"/><use xlink:href="#9" y="2.171"/><use xlink:href="#10" y="4.342"/><use xlink:href="#11" y="6.513"/><use xlink:href="#12" y="8.684"/><use xlink:href="#13" y="10.855"/><use xlink:href="#14" y="13.026"/><use xlink:href="#15" y="15.197"/><use xlink:href="#16" y="17.368"/><use xlink:href="#17" y="19.539"/><use xlink:href="#18" y="21.71"/><use xlink:href="#19" y="23.881"/><use xlink:href="#20" y="26.052"/><use xlink:href="#21" y="28.223"/><text y="32.064" class="g">Download</text><text x="16.032" y="32.064" class="g">[=======</text><text x="42.084" y="32.064" class="g">]</text><text x="45.09" y="32.064" class="g">31%</text><text x="57.114" y="32.064" class="g">6144</text><text x="62.124" y="32.064" class="g">bytes</text></svg><svg x="3760"><use xlink:href="#a"/><use xlink:href="#b" x="66.996" y="30.369"/><use xlink:href="#9" y="2.171"/><use xlink:href="#10" y="4.342"/><use xlink:href="#11" y="6.513"/><use xlink:href="#12" y="8.684"/><use xlink:href="#13" y="10.855"/><use xlink:href="#14" y="13.026"/><use xlink:href="#15" y="15.197"/><use xlink:href="#16" y="17.368"/><use xlink:href="#17" y="19.539"/><use xlink:href="#18" y="21.71"/><use xlink:href="#19" y="23.881"/><use xlink:href="#20" y="26.052"/><use xlink:href="#21" y="28.223"/><text y="32.064" class="g">Download</text><text x="16.032" y="32.064" class="g">[=========</text><text x="42.084" y="32.064" class="g">]</text><text x="45.09" y="32.064" class="g">37%</text><text x="57.114" y="32.064" class="g">7168</text><text x="62.124" y="32.064" class="g">bytes</text></svg><svg x="3840"><use xlink:href="#a"/><use xlink:href="#b" x="66.996" y="30.369"/><use xlink:href="#9" y="2.171"/><use xlink:href="#10" y="4.342"/><use xlink:href="#11" y="6.513"/><use xlink:href="#12" y="8.684"/><use xlink:href="#13" y="10.855"/><use xlink:href="#14" y="13.026"/><use xlink:href="#15" y="15.197"/><use xlink:href="#16" y="17.368"/><use xlink:href="#17" y="19.539"/><use xlink:href="#18" y="21.71"/><use xlink:href="#19" y="23.881"/><use xlink:href="#20" y="26.052"/><use xlink:href="#21" y="28.223"/><text y="32.064" class="g">Download</text><text x="16.032" y="32.064" class="g">[==========</text><text x="42.084" y="32.064" class="g">]</text><text x="45.09" y="32.064" class="g">42%</text><text x="57.114" y="32.064" class="g">8192</text><text x="62.124" y="32.064" class="g">bytes</text></svg><svg x="3920"><use xlink:href="#a"/><use xlink:href="#b" x="66.996" y="30.369"/><use xlink:href="#9" y="2.171"/><use xlink:href="#10" y="4.342"/><use xlink:href="#11" y="6.513"/><use xlink:href="#12" y="8.684"/><use xlink:href="#13" y="10.855"/><use xlink:href="#14" y="13.026"/><use xlink:href="#15" y="15.197"/><use xlink:href="#16" y="17.368"/><use xlink:href="#17" y="19.539"/><use xlink:href="#18" y="21.71"/><use xlink:href="#19" y="23.881"/><use xlink:href="#20" y="26.052"/><use xlink:href="#21" y="28.223"/><text y="32.064" class="g">Download</text><text x="16.032" y="32.064" class="g">[===========</text><text x="42.084" y="32.064" class="g">]</text><text x="45.09" y="32.064" class="g">47%</text><text x="57.114" y="32.064" class="g">9216</text><text x="62.124" y="32.064" class="g">bytes</text></svg><svg x="4000"><use xlink:href="#a"/><use xlink:href="#b" x="66.996" y="30.369"/><use xlink:href="#9" y="2.171"/><use xlink:href="#10" y="4.342"/><use xlink:href="#11" y="6.513"/><use xlink:href="#12" y="8.684"/><use xlink:href="#13" y="10.855"/><use xlink:href="#14" y="13.026"/><use xlink:href="#15" y="15.197"/><use xlink:href="#16" y="17.368"/><use xlink:href="#17" y="19.539"/><use xlink:href="#18" y="21.71"/><use xlink:href="#19" y="23.881"/><use xlink:href="#20" y="26.052"/><use xlink:href="#21" y="28.223"/><text y="32.064" class="g">Download</text><text x="16.032" y="32.064" class="g">[=============</text><text x="42.084" y="32.064" class="g">]</text><text x="45.09" y="32.064" class="g">53%</text><text x="56.112" y="32.064" class="g">10240</text><text x="62.124" y="32.064" class="g">bytes</text></svg><svg x="4080"><use xlink:href="#a"/><use xlink:href="#b" x="66.996" y="30.369"/><use xlink:href="#9" y="2.171"/><use xlink:href="#10" y="4.342"/><use xlink:href="#11" y="6.513"/><use xlink:href="#12" y="8.684"/><use xlink:href="#13" y="10.855"/><use xlink:href="#14" y="13.026"/><use xlink:href="#15" y="15.197"/><use xlink:href="#16" y="17.368"/><use xlink:href="#17" y="19.539"/><use xlink:href="#18" y="21.71"/><use xlink:href="#19" y="23.881"/><use xlink:href="#20" y="26.052"/><use xlink:href="#21" y="28.223"/><text y="32.064" class="g">Download</text><text x="16.032" y="32.064" class="g">[==============</text><text x="42.084" y="32.064" class="g">]</text><text x="45.09" y="32.064" class="g">58%</text><text x="56.112" y="32.064" class="g">11264</text><text x="62.124" y="32.064" class="g">bytes</text></svg><svg x="4160"><use xlink:href="#a"/><use xlink:href="#b" x="66.996" y="30.369"/><use xlink:href="#9" y="2.171"/><use xlink:href="#10" y="4.342"/><use xlink:href="#11" y="6.513"/><use xlink:href="#12" y="8.684"/><use xlink:href="#13" y="10.855"/><use xlink:href="#14" y="13.026"/><use xlink:href="#15" y="15.197"/><use xlink:href="#16" y="17.368"/><use xlink:href="#17" y="19.539"/><use xlink:href="#18" y="21.71"/><use xlink:href="#19" y="23.881"/><use xlink:href="#20" y="26.052"/><use xlink:href="#21" y="28.223"/><text y="32.064" class="g">Download</text><text x="16.032" y="32.064" class="g">[===============</text><text x="42.084" y="32.064" class="g">]</text><text x="45.09" y="32.064" class="g">63%</text><text x="56.112" y="32.064" class="g">12288</text><text x="62.124" y="32.064" class="g">bytes</text></svg><svg x="4240"><use xlink:href="#a"/><use xlink:href="#b" x="66.996" y="30.369"/><use xlink:href="#9" y="2.171"/><use xlink:href="#10" y="4.342"/><use xlink:href="#11" y="6.513"/><use xlink:href="#12" y="8.684"/><use xlink:href="#13" y="10.855"/><use xlink:href="#14" y="13.026"/><use xlink:href="#15" y="15.197"/><use xlink:href="#16" y="17.368"/><use xlink:href="#17" y="19.539"/><use xlink:href="#18" y="21.71"/><use xlink:href="#19" y="23.881"/><use xlink:href="#20" y="26.052"/><use xlink:href="#21" y="28.223"/><text y="32.064" class="g">Download</text><text x="16.032" y="32.064" class="g">[=================</text><text x="42.084" y="32.064" class="g">]</text><text x="45.09" y="32.064" class="g">69%</text><text x="56.112" y="32.064" class="g">13312</text><text x="62.124" y="32.064" class="g">bytes</text></svg><svg x="4320"><use xlink:href="#a"/><use xlink:href="#b" x="66.996" y="30.369"/><use xlink:href="#9" y="2.171"/><use xlink:href="#10" y="4.342"/><use xlink:href="#11" y="6.513"/><use xlink:href="#12" y="8.684"/><use xlink:href="#13" y="10.855"/><use xlink:href="#14" y="13.026"/><use xlink:href="#15" y="15.197"/><use xlink:href="#16" y="17.368"/><use xlink:href="#17" y="19.539"/><use xlink:href="#18" y="21.71"/><use xlink:href="#19" y="23.881"/><use xlink:href="#20" y="26.052"/><use xlink:href="#21" y="28.223"/><text y="32.064" class="g">Download</text><text x="16.032" y="32.064" class="g">[==================</text><text x="42.084" y="32.064" class="g">]</text><text x="45.09" y="32.064" class="g">74%</text><text x="56.112" y="32.064" class="g">14336</text><text x="62.124" y="32.064" class="g">bytes</text></svg><svg x="4400"><use xlink:href="#a"/><use xlink:href="#b" x="66.996" y="30.369"/><use xlink:href="#9" y="2.171"/><use xlink:href="#10" y="4.342"/><use xlink:href="#11" y="6.513"/><use xlink:href="#12" y="8.684"/><use xlink:href="#13" y="10.855"/><use xlink:href="#14" y="13.026"/><use xlink:href="#15" y="15.197"/><use xlink:href="#16" y="17.368"/><use xlink:href="#17" y="19.539"/><use xlink:href="#18" y="21.71"/><use xlink:href="#19" y="23.881"/><use xlink:href="#20" y="26.052"/><use xlink:href="#21" y="28.223"/><text y="32.064" class="g">Download</text><text x="16.032" y="32.064" class="g">[===================</text><text x="42.084" y="32.064" class="g">]</text><text x="45.09" y="32.064" class="g">79%</text><text x="56.112" y="32.064" class="g">15360</text><text x="62.124" y="32.064" class="g">bytes</text></svg><svg x="4480"><use xlink:href="#a"/><use xlink:href="#b" x="66.996" y="30.369"/><use xlink:href="#9" y="2.171"/><use xlink:href="#10" y="4.342"/><use xlink:href="#11" y="6.513"/><use xlink:href="#12" y="8.684"/><use xlink:href="#13" y="10.855"/><use xlink:href="#14" y="13.026"/><use xlink:href="#15" y="15.197"/><use xlink:href="#16" y="17.368"/><use xlink:href="#17" y="19.539"/><use xlink:href="#18" y="21.71"/><use xlink:href="#19" y="23.881"/><use xlink:href="#20" y="26.052"/><use xlink:href="#21" y="28.223"/><text y="32.064" class="g">Download</text><text x="16.032" y="32.064" class="g">[=====================</text><text x="42.084" y="32.064" class="g">]</text><text x="45.09" y="32.064" class="g">84%</text><text x="56.112" y="32.064" class="g">16384</text><text x="62.124" y="32.064" class="g">bytes</text></svg><svg x="4560"><use xlink:href="#a"/><use xlink:href="#b" x="66.996" y="30.369"/><use xlink:href="#9" y="2.171"/><use xlink:href="#10" y="4.342"/><use xlink:href="#11" y="6.513"/><use xlink:href="#12" y="8.684"/><use xlink:href="#13" y="10.855"/><use xlink:href="#14" y="13.026"/><use xlink:href="#15" y="15.197"/><use xlink:href="#16" y="17.368"/><use xlink:href="#17" y="19.539"/><use xlink:href="#18" y="21.71"/><use xlink:href="#19" y="23.881"/><use xlink:href="#20" y="26.052"/><use xlink:href="#21" y="28.223"/><text y="32.064" class="g">Download</text><text x="16.032" y="32.064" class="g">[======================</text><text x="42.084" y="32.064" class="g">]</text><text x="45.09" y="32.064" class="g">90%</text><text x="56.112" y="32.064" class="g">17408</text><text x="62.124" y="32.064" class="g">bytes</text></svg><svg x="4640"><use xlink:href="#a"/><use xlink:href="#b" x="66.996" y="30.369"/><use xlink:href="#9" y="2.171"/><use xlink:href="#10" y="4.342"/><use xlink:href="#11" y="6.513"/><use xlink:href="#12" y="8.684"/><use xlink:href="#13" y="10.855"/><use xlink:href="#14" y="13.026"/><use xlink:href="#15" y="15.197"/><use xlink:href="#16" y="17.368"/><use xlink:href="#17" y="19.539"/><use xlink:href="#18" y="21.71"/><use xlink:href="#19" y="23.881"/><use xlink:href="#20" y="26.052"/><use xlink:href="#21" y="28.223"/><text y="32.064" class="g">Download</text><text x="16.032" y="32.064" class="g">[=======================</text><text x="42.084" y="32.064" class="g">]</text><text x="45.09" y="32.064" class="g">95%</text><text x="56.112" y="32.064" class="g">18432</text><text x="62.124" y="32.064" class="g">bytes</text></svg><svg x="4720"><use xlink:href="#a"/><use xlink:href="#b" x="66.996" y="30.369"/><use xlink:href="#9" y="2.171"/><use xlink:href="#10" y="4.342"/><use xlink:href="#11" y="6.513"/><use xlink:href="#12" y="8.684"/><use xlink:href="#13" y="10.855"/><use xlink:href="#14" y="13.026"/><use xlink:href="#15" y="15.197"/><use xlink:href="#16" y="17.368"/><use xlink:href="#17" y="19.539"/><use xlink:href="#18" y="21.71"/><use xlink:href="#19" y="23.881"/><use xlink:href="#20" y="26.052"/><use xlink:href="#21" y="28.223"/><use xlink:href="#22" y="30.394"/></svg><svg x="4800"><use xlink:href="#a"/><use xlink:href="#b" x="-.004" y="32.54"/><use xlink:href="#10"/><use xlink:href="#11" y="2.171"/><use xlink:href="#12" y="4.342"/><use xlink:href="#13" y="6.513"/><use xlink:href="#14" y="8.684"/><use xlink:href="#15" y="10.855"/><use xlink:href="#16" y="13.026"/><use xlink:href="#17" y="15.197"/><use xlink:href="#18" y="17.368"/><use xlink:href="#19" y="19.539"/><use xlink:href="#20" y="21.71"/><use xlink:href="#21" y="23.881"/><use xlink:href="#22" y="26.052"/><use xlink:href="#23" y="28.223"/><use xlink:href="#24" y="30.394"/></svg><svg x="4880"><use xlink:href="#a"/><use xlink:href="#b" x="-.004" y="32.54"/><use xlink:href="#11"/><use xlink:href="#12" y="2.171"/><use xlink:href="#13" y="4.342"/><use xlink:href="#14" y="6.513"/><use xlink:href="#15" y="8.684"/><use xlink:href="#16" y="10.855"/><use xlink:href="#17" y="13.026"/><use xlink:href="#18" y="15.197"/><use xlink:href="#19" y="17.368"/><use xlink:href="#20" y="19.539"/><use xlink:href="#21" y="21.71"/><use xlink:href="#22" y="23.881"/><use xlink:href="#23" y="26.052"/><use xlink:href="#24" y="28.223"/><use xlink:href="#25" y="30.394"/></svg><svg x="4960"><use xlink:href="#a"/><use xlink:href="#b" x="-.004" y="32.54"/><use xlink:href="#12"/><use xlink:href="#13" y="2.171"/><use xlink:href="#14" y="4.342"/><use xlink:href="#15" y="6.513"/><use xlink:href="#16" y="8.684"/><use xlink:href="#17" y="10.855"/><use xlink:href="#18" y="13.026"/><use xlink:href="#19" y="15.197"/><use xlink:href="#20" y="17.368"/><use xlink:href="#21" y="19.539"/><use xlink:href="#22" y="21.71"/><use xlink:href="#23" y="23.881"/><use xlink:href="#24" y="26.052"/><use xlink:href="#25" y="28.223"/><use xlink:href="#26" y="30.394"/></svg><svg x="5040"><use xlink:href="#a"/><use xlink:href="#b" x="38.996" y="30.369"/><use xlink:href="#13"/><use xlink:href="#14" y="2.171"/><use xlink:href="#15" y="4.342"/><use xlink:href="#16" y="6.513"/><use xlink:href="#17" y="8.684"/><use xlink:href="#18" y="10.855"/><use xlink:href="#19" y="13.026"/><use xlink:href="#20" y="15.197"/><use xlink:href="#21" y="17.368"/><use xlink:href="#22" y="19.539"/><use xlink:href="#23" y="21.71"/><use xlink:href="#24" y="23.881"/><use xlink:href="#25" y="26.052"/><use xlink:href="#26" y="28.223"/><use xlink:href="#1" y="30.394"/></svg><svg x="5120"><use xlink:href="#a"/><use xlink:href="#b" x="38.996" y="30.369"/><use xlink:href="#13"/><use xlink:href="#14" y="2.171"/><use xlink:href="#15" y="4.342"/><use xlink:href="#16" y="6.513"/><use xlink:href="#17" y="8.684"/><use xlink:href="#18" y="10.855"/><use xlink:href="#19" y="13.026"/><use xlink:href="#20" y="15.197"/><use xlink:href="#21" y="17.368"/><use xlink:href="#22" y="19.539"/><use xlink:href="#23" y="21.71"/><use xlink:href="#24" y="23.881"/><use xlink:href="#25" y="26.052"/><use xlink:href="#26" y="28.223"/><use xlink:href="#1" y="30.394"/></svg></svg></g></g></svg></svg>