<svg xmlns="http://www.w3.org/2000/svg" xmlns:xlink="http://www.w3.org/1999/xlink" width="880" height="211.97"><rect width="880" height="211.97" rx="5" ry="5" class="a"/><svg y="0%" x="0%"><circle cx="20" cy="20" r="6" fill="#ff5f58"/><circle cx="40" cy="20" r="6" fill="#ffbd2e"/><circle cx="60" cy="20" r="6" fill="#18c132"/></svg><svg height="151.97" viewBox="0 0 82 15.197" width="820" x="25" xmlns="http://www.w3.org/2000/svg" xmlns:xlink="http://www.w3.org/1999/xlink" y="50"><style>@keyframes k{0%{transform:translateX(-82px)}13.3%{transform:translateX(-164px)}13.7%{transform:translateX(-246px)}14%{transform:translateX(-328px)}14.3%{transform:translateX(-410px)}14.7%{transform:translateX(-492px)}15%{transform:translateX(-574px)}15.3%{transform:translateX(-656px)}15.7%{transform:translateX(-738px)}16%{transform:translateX(-820px)}16.3%{transform:translateX(-902px)}16.7%{transform:translateX(-984px)}17%{transform:translateX(-1066px)}17.3%{transform:translateX(-1148px)}17.7%{transform:translateX(-1230px)}18%{transform:translateX(-1312px)}18.3%{transform:translateX(-1394px)}18.7%{transform:translateX(-1476px)}19%{transform:translateX(-1558px)}19.3%{transform:translateX(-1640px)}26.3%{transform:translateX(-3362px)}20%{transform:translateX(-1804px)}20.3%{transform:translateX(-1886px)}20.7%{transform:translateX(-1968px)}21%{transform:translateX(-2050px)}21.3%{transform:translateX(-2132px)}21.7%{transform:translateX(-2214px)}22%{transform:translateX(-2296px)}22.3%{transform:translateX(-2378px)}22.7%{transform:translateX(-2460px)}23%{transform:translateX(-2542px)}23.3%{transform:translateX(-2624px)}23.7%{transform:translateX(-2706px)}24%{transform:translateX(-2788px)}24.3%{transform:translateX(-2870px)}24.7%{transform:translateX(-2952px)}25%{transform:translateX(-3034px)}25.3%{transform:translateX(-3116px)}25.7%{transform:translateX(-3198px)}26%{transform:translateX(-3280px)}26.7%{transform:translateX(-3444px)}27%{transform:translateX(-3526px)}27.3%{transform:translateX(-3608px)}27.7%{transform:translateX(-3690px)}28%{transform:translateX(-3772px)}28.3%{transform:translateX(-3854px)}28.7%{transform:translateX(-3936px)}29%{transform:translateX(-4018px)}29.3%{transform:translateX(-4100px)}29.7%{transform:translateX(-4182px)}30%{transform:translateX(-4264px)}30.3%{transform:translateX(-4346px)}30.7%{transform:translateX(-4428px)}31%{transform:translateX(-4510px)}31.3%{transform:translateX(-4592px)}31.7%{transform:translateX(-4674px)}32%{transform:translateX(-4756px)}32.3%{transform:translateX(-4838px)}32.7%{transform:translateX(-4920px)}33%{transform:translateX(-5002px)}33.3%{transform:translateX(-5084px)}33.7%{transform:translateX(-5166px)}40%{transform:translateX(-5248px)}50%{transform:translateX(-5330px)}60%{transform:translateX(-5412px)}66.7%{transform:translateX(-5494px)}to{transform:translateX(-5576px)}}.a{fill:#282d35}.f,.g,.h{white-space:pre}.f{fill:#a8cc8c;font-weight:700}.g,.h{fill:#b9c0cb}.h{fill:#71bef2;font-weight:700}</style><g font-family="Monaco,Consolas,Menlo,'Bitstream Vera Sans Mono','Powerline Symbols',monospace" font-size="1.67"><defs><symbol id="1"><text y="1.67" class="f">pi@mainsailos</text><text x="13.026" y="1.67" class="g">:</text><text x="14.028" y="1.67" class="h">~</text><text x="16.032" y="1.67" class="h">$</text></symbol><symbol id="2"><text y="1.67" class="f">pi@mainsailos</text><text x="13.026" y="1.67" class="g">:</text><text x="14.028" y="1.67" class="h">~</text><text x="16.032" y="1.67" class="h">$</text><text x="18.036" y="1.67" class="g">~/klippy-env/bin/python</text></symbol><symbol id="3"><text y="1.67" class="f">pi@mainsailos</text><text x="13.026" y="1.67" class="g">:</text><text x="14.028" y="1.67" class="h">~</text><text x="16.032" y="1.67" class="h">$</text><text x="18.036" y="1.67" class="g">~/klippy-env/bin/python</text><text x="42.084" y="1.67" class="g">~/klipper/scripts/canbus_query.py</text></symbol><symbol id="4"><text y="1.67" class="f">pi@mainsailos</text><text x="13.026" y="1.67" class="g">:</text><text x="14.028" y="1.67" class="h">~</text><text x="16.032" y="1.67" class="h">$</text><text x="18.036" y="1.67" class="g">~/klippy-env/bin/python</text><text x="42.084" y="1.67" class="g">~/klipper/scripts/canbus_query.py</text><text x="76.152" y="1.67" class="g">can0</text></symbol><symbol id="5"><text y="1.67" class="g">Found</text><text x="6.012" y="1.67" class="g">canbus_uuid=78a911d38153,</text><text x="32.064" y="1.67" class="g">Application:</text><text x="45.09" y="1.67" class="g">Klipper</text></symbol><symbol id="6"><text y="1.67" class="g">Total</text><text x="6.012" y="1.67" class="g">1</text><text x="8.016" y="1.67" class="g">uuids</text><text x="14.028" y="1.67" class="g">found</text></symbol><symbol id="a"><path fill="transparent" d="M0 0h82v8H0z"/></symbol><symbol id="b"><path fill="#6f7683" d="M0 0h1.102v2.171H0z"/></symbol></defs><path class="a" d="M0 0h82v15.197H0z"/><g style="animation-duration:15s;animation-iteration-count:infinite;animation-name:k;animation-timing-function:steps(1,end)"><svg width="5658"><svg><use xlink:href="#a"/><use xlink:href="#b" x="-.004"/></svg><svg x="82"><use xlink:href="#a"/><use xlink:href="#b" x="17.996"/><use xlink:href="#1"/></svg><svg x="164"><use xlink:href="#a"/><use xlink:href="#b" x="18.996"/><text y="1.67" class="f">pi@mainsailos</text><text x="13.026" y="1.67" class="g">:</text><text x="14.028" y="1.67" class="h">~</text><text x="16.032" y="1.67" class="h">$</text><text x="18.036" y="1.67" class="g">~</text></svg><svg x="246"><use xlink:href="#a"/><use xlink:href="#b" x="19.996"/><text y="1.67" class="f">pi@mainsailos</text><text x="13.026" y="1.67" class="g">:</text><text x="14.028" y="1.67" class="h">~</text><text x="16.032" y="1.67" class="h">$</text><text x="18.036" y="1.67" class="g">~/</text></svg><svg x="328"><use xlink:href="#a"/><use xlink:href="#b" x="20.996"/><text y="1.67" class="f">pi@mainsailos</text><text x="13.026" y="1.67" class="g">:</text><text x="14.028" y="1.67" class="h">~</text><text x="16.032" y="1.67" class="h">$</text><text x="18.036" y="1.67" class="g">~/k</text></svg><svg x="410"><use xlink:href="#a"/><use xlink:href="#b" x="21.996"/><text y="1.67" class="f">pi@mainsailos</text><text x="13.026" y="1.67" class="g">:</text><text x="14.028" y="1.67" class="h">~</text><text x="16.032" y="1.67" class="h">$</text><text x="18.036" y="1.67" class="g">~/kl</text></svg><svg x="492"><use xlink:href="#a"/><use xlink:href="#b" x="22.996"/><text y="1.67" class="f">pi@mainsailos</text><text x="13.026" y="1.67" class="g">:</text><text x="14.028" y="1.67" class="h">~</text><text x="16.032" y="1.67" class="h">$</text><text x="18.036" y="1.67" class="g">~/kli</text></svg><svg x="574"><use xlink:href="#a"/><use xlink:href="#b" x="23.996"/><text y="1.67" class="f">pi@mainsailos</text><text x="13.026" y="1.67" class="g">:</text><text x="14.028" y="1.67" class="h">~</text><text x="16.032" y="1.67" class="h">$</text><text x="18.036" y="1.67" class="g">~/klip</text></svg><svg x="656"><use xlink:href="#a"/><use xlink:href="#b" x="24.996"/><text y="1.67" class="f">pi@mainsailos</text><text x="13.026" y="1.67" class="g">:</text><text x="14.028" y="1.67" class="h">~</text><text x="16.032" y="1.67" class="h">$</text><text x="18.036" y="1.67" class="g">~/klipp</text></svg><svg x="738"><use xlink:href="#a"/><use xlink:href="#b" x="25.996"/><text y="1.67" class="f">pi@mainsailos</text><text x="13.026" y="1.67" class="g">:</text><text x="14.028" y="1.67" class="h">~</text><text x="16.032" y="1.67" class="h">$</text><text x="18.036" y="1.67" class="g">~/klippy</text></svg><svg x="820"><use xlink:href="#a"/><use xlink:href="#b" x="26.996"/><text y="1.67" class="f">pi@mainsailos</text><text x="13.026" y="1.67" class="g">:</text><text x="14.028" y="1.67" class="h">~</text><text x="16.032" y="1.67" class="h">$</text><text x="18.036" y="1.67" class="g">~/klippy-</text></svg><svg x="902"><use xlink:href="#a"/><use xlink:href="#b" x="27.996"/><text y="1.67" class="f">pi@mainsailos</text><text x="13.026" y="1.67" class="g">:</text><text x="14.028" y="1.67" class="h">~</text><text x="16.032" y="1.67" class="h">$</text><text x="18.036" y="1.67" class="g">~/klippy-e</text></svg><svg x="984"><use xlink:href="#a"/><use xlink:href="#b" x="28.996"/><text y="1.67" class="f">pi@mainsailos</text><text x="13.026" y="1.67" class="g">:</text><text x="14.028" y="1.67" class="h">~</text><text x="16.032" y="1.67" class="h">$</text><text x="18.036" y="1.67" class="g">~/klippy-en</text></svg><svg x="1066"><use xlink:href="#a"/><use xlink:href="#b" x="29.996"/><text y="1.67" class="f">pi@mainsailos</text><text x="13.026" y="1.67" class="g">:</text><text x="14.028" y="1.67" class="h">~</text><text x="16.032" y="1.67" class="h">$</text><text x="18.036" y="1.67" class="g">~/klippy-env</text></svg><svg x="1148"><use xlink:href="#a"/><use xlink:href="#b" x="30.996"/><text y="1.67" class="f">pi@mainsailos</text><text x="13.026" y="1.67" class="g">:</text><text x="14.028" y="1.67" class="h">~</text><text x="16.032" y="1.67" class="h">$</text><text x="18.036" y="1.67" class="g">~/klippy-env/</text></svg><svg x="1230"><use xlink:href="#a"/><use xlink:href="#b" x="31.996"/><text y="1.67" class="f">pi@mainsailos</text><text x="13.026" y="1.67" class="g">:</text><text x="14.028" y="1.67" class="h">~</text><text x="16.032" y="1.67" class="h">$</text><text x="18.036" y="1.67" class="g">~/klippy-env/b</text></svg><svg x="1312"><use xlink:href="#a"/><use xlink:href="#b" x="32.996"/><text y="1.67" class="f">pi@mainsailos</text><text x="13.026" y="1.67" class="g">:</text><text x="14.028" y="1.67" class="h">~</text><text x="16.032" y="1.67" class="h">$</text><text x="18.036" y="1.67" class="g">~/klippy-env/bi</text></svg><svg x="1394"><use xlink:href="#a"/><use xlink:href="#b" x="33.996"/><text y="1.67" class="f">pi@mainsailos</text><text x="13.026" y="1.67" class="g">:</text><text x="14.028" y="1.67" class="h">~</text><text x="16.032" y="1.67" class="h">$</text><text x="18.036" y="1.67" class="g">~/klippy-env/bin</text></svg><svg x="1476"><use xlink:href="#a"/><use xlink:href="#b" x="34.996"/><text y="1.67" class="f">pi@mainsailos</text><text x="13.026" y="1.67" class="g">:</text><text x="14.028" y="1.67" class="h">~</text><text x="16.032" y="1.67" class="h">$</text><text x="18.036" y="1.67" class="g">~/klippy-env/bin/</text></svg><svg x="1558"><use xlink:href="#a"/><use xlink:href="#b" x="35.996"/><text y="1.67" class="f">pi@mainsailos</text><text x="13.026" y="1.67" class="g">:</text><text x="14.028" y="1.67" class="h">~</text><text x="16.032" y="1.67" class="h">$</text><text x="18.036" y="1.67" class="g">~/klippy-env/bin/p</text></svg><svg x="1640"><use xlink:href="#a"/><use xlink:href="#b" x="36.996"/><text y="1.67" class="f">pi@mainsailos</text><text x="13.026" y="1.67" class="g">:</text><text x="14.028" y="1.67" class="h">~</text><text x="16.032" y="1.67" class="h">$</text><text x="18.036" y="1.67" class="g">~/klippy-env/bin/py</text></svg><svg x="1722"><use xlink:href="#a"/><use xlink:href="#b" x="37.996"/><text y="1.67" class="f">pi@mainsailos</text><text x="13.026" y="1.67" class="g">:</text><text x="14.028" y="1.67" class="h">~</text><text x="16.032" y="1.67" class="h">$</text><text x="18.036" y="1.67" class="g">~/klippy-env/bin/pyt</text></svg><svg x="1804"><use xlink:href="#a"/><use xlink:href="#b" x="38.996"/><text y="1.67" class="f">pi@mainsailos</text><text x="13.026" y="1.67" class="g">:</text><text x="14.028" y="1.67" class="h">~</text><text x="16.032" y="1.67" class="h">$</text><text x="18.036" y="1.67" class="g">~/klippy-env/bin/pyth</text></svg><svg x="1886"><use xlink:href="#a"/><use xlink:href="#b" x="39.996"/><text y="1.67" class="f">pi@mainsailos</text><text x="13.026" y="1.67" class="g">:</text><text x="14.028" y="1.67" class="h">~</text><text x="16.032" y="1.67" class="h">$</text><text x="18.036" y="1.67" class="g">~/klippy-env/bin/pytho</text></svg><svg x="1968"><use xlink:href="#a"/><use xlink:href="#b" x="40.996"/><use xlink:href="#2"/></svg><svg x="2050"><use xlink:href="#a"/><use xlink:href="#b" x="41.996"/><use xlink:href="#2"/></svg><svg x="2132"><use xlink:href="#a"/><use xlink:href="#b" x="42.996"/><text y="1.67" class="f">pi@mainsailos</text><text x="13.026" y="1.67" class="g">:</text><text x="14.028" y="1.67" class="h">~</text><text x="16.032" y="1.67" class="h">$</text><text x="18.036" y="1.67" class="g">~/klippy-env/bin/python</text><text x="42.084" y="1.67" class="g">~</text></svg><svg x="2214"><use xlink:href="#a"/><use xlink:href="#b" x="43.996"/><text y="1.67" class="f">pi@mainsailos</text><text x="13.026" y="1.67" class="g">:</text><text x="14.028" y="1.67" class="h">~</text><text x="16.032" y="1.67" class="h">$</text><text x="18.036" y="1.67" class="g">~/klippy-env/bin/python</text><text x="42.084" y="1.67" class="g">~/</text></svg><svg x="2296"><use xlink:href="#a"/><use xlink:href="#b" x="44.996"/><text y="1.67" class="f">pi@mainsailos</text><text x="13.026" y="1.67" class="g">:</text><text x="14.028" y="1.67" class="h">~</text><text x="16.032" y="1.67" class="h">$</text><text x="18.036" y="1.67" class="g">~/klippy-env/bin/python</text><text x="42.084" y="1.67" class="g">~/k</text></svg><svg x="2378"><use xlink:href="#a"/><use xlink:href="#b" x="45.996"/><text y="1.67" class="f">pi@mainsailos</text><text x="13.026" y="1.67" class="g">:</text><text x="14.028" y="1.67" class="h">~</text><text x="16.032" y="1.67" class="h">$</text><text x="18.036" y="1.67" class="g">~/klippy-env/bin/python</text><text x="42.084" y="1.67" class="g">~/kl</text></svg><svg x="2460"><use xlink:href="#a"/><use xlink:href="#b" x="46.996"/><text y="1.67" class="f">pi@mainsailos</text><text x="13.026" y="1.67" class="g">:</text><text x="14.028" y="1.67" class="h">~</text><text x="16.032" y="1.67" class="h">$</text><text x="18.036" y="1.67" class="g">~/klippy-env/bin/python</text><text x="42.084" y="1.67" class="g">~/kli</text></svg><svg x="2542"><use xlink:href="#a"/><use xlink:href="#b" x="47.996"/><text y="1.67" class="f">pi@mainsailos</text><text x="13.026" y="1.67" class="g">:</text><text x="14.028" y="1.67" class="h">~</text><text x="16.032" y="1.67" class="h">$</text><text x="18.036" y="1.67" class="g">~/klippy-env/bin/python</text><text x="42.084" y="1.67" class="g">~/klip</text></svg><svg x="2624"><use xlink:href="#a"/><use xlink:href="#b" x="48.996"/><text y="1.67" class="f">pi@mainsailos</text><text x="13.026" y="1.67" class="g">:</text><text x="14.028" y="1.67" class="h">~</text><text x="16.032" y="1.67" class="h">$</text><text x="18.036" y="1.67" class="g">~/klippy-env/bin/python</text><text x="42.084" y="1.67" class="g">~/klipp</text></svg><svg x="2706"><use xlink:href="#a"/><use xlink:href="#b" x="49.996"/><text y="1.67" class="f">pi@mainsailos</text><text x="13.026" y="1.67" class="g">:</text><text x="14.028" y="1.67" class="h">~</text><text x="16.032" y="1.67" class="h">$</text><text x="18.036" y="1.67" class="g">~/klippy-env/bin/python</text><text x="42.084" y="1.67" class="g">~/klippe</text></svg><svg x="2788"><use xlink:href="#a"/><use xlink:href="#b" x="50.996"/><text y="1.67" class="f">pi@mainsailos</text><text x="13.026" y="1.67" class="g">:</text><text x="14.028" y="1.67" class="h">~</text><text x="16.032" y="1.67" class="h">$</text><text x="18.036" y="1.67" class="g">~/klippy-env/bin/python</text><text x="42.084" y="1.67" class="g">~/klipper</text></svg><svg x="2870"><use xlink:href="#a"/><use xlink:href="#b" x="51.996"/><text y="1.67" class="f">pi@mainsailos</text><text x="13.026" y="1.67" class="g">:</text><text x="14.028" y="1.67" class="h">~</text><text x="16.032" y="1.67" class="h">$</text><text x="18.036" y="1.67" class="g">~/klippy-env/bin/python</text><text x="42.084" y="1.67" class="g">~/klipper/</text></svg><svg x="2952"><use xlink:href="#a"/><use xlink:href="#b" x="52.996"/><text y="1.67" class="f">pi@mainsailos</text><text x="13.026" y="1.67" class="g">:</text><text x="14.028" y="1.67" class="h">~</text><text x="16.032" y="1.67" class="h">$</text><text x="18.036" y="1.67" class="g">~/klippy-env/bin/python</text><text x="42.084" y="1.67" class="g">~/klipper/s</text></svg><svg x="3034"><use xlink:href="#a"/><use xlink:href="#b" x="53.996"/><text y="1.67" class="f">pi@mainsailos</text><text x="13.026" y="1.67" class="g">:</text><text x="14.028" y="1.67" class="h">~</text><text x="16.032" y="1.67" class="h">$</text><text x="18.036" y="1.67" class="g">~/klippy-env/bin/python</text><text x="42.084" y="1.67" class="g">~/klipper/sc</text></svg><svg x="3116"><use xlink:href="#a"/><use xlink:href="#b" x="54.996"/><text y="1.67" class="f">pi@mainsailos</text><text x="13.026" y="1.67" class="g">:</text><text x="14.028" y="1.67" class="h">~</text><text x="16.032" y="1.67" class="h">$</text><text x="18.036" y="1.67" class="g">~/klippy-env/bin/python</text><text x="42.084" y="1.67" class="g">~/klipper/scr</text></svg><svg x="3198"><use xlink:href="#a"/><use xlink:href="#b" x="55.996"/><text y="1.67" class="f">pi@mainsailos</text><text x="13.026" y="1.67" class="g">:</text><text x="14.028" y="1.67" class="h">~</text><text x="16.032" y="1.67" class="h">$</text><text x="18.036" y="1.67" class="g">~/klippy-env/bin/python</text><text x="42.084" y="1.67" class="g">~/klipper/scri</text></svg><svg x="3280"><use xlink:href="#a"/><use xlink:href="#b" x="56.996"/><text y="1.67" class="f">pi@mainsailos</text><text x="13.026" y="1.67" class="g">:</text><text x="14.028" y="1.67" class="h">~</text><text x="16.032" y="1.67" class="h">$</text><text x="18.036" y="1.67" class="g">~/klippy-env/bin/python</text><text x="42.084" y="1.67" class="g">~/klipper/scrip</text></svg><svg x="3362"><use xlink:href="#a"/><use xlink:href="#b" x="57.996"/><text y="1.67" class="f">pi@mainsailos</text><text x="13.026" y="1.67" class="g">:</text><text x="14.028" y="1.67" class="h">~</text><text x="16.032" y="1.67" class="h">$</text><text x="18.036" y="1.67" class="g">~/klippy-env/bin/python</text><text x="42.084" y="1.67" class="g">~/klipper/script</text></svg><svg x="3444"><use xlink:href="#a"/><use xlink:href="#b" x="58.996"/><text y="1.67" class="f">pi@mainsailos</text><text x="13.026" y="1.67" class="g">:</text><text x="14.028" y="1.67" class="h">~</text><text x="16.032" y="1.67" class="h">$</text><text x="18.036" y="1.67" class="g">~/klippy-env/bin/python</text><text x="42.084" y="1.67" class="g">~/klipper/scripts</text></svg><svg x="3526"><use xlink:href="#a"/><use xlink:href="#b" x="59.996"/><text y="1.67" class="f">pi@mainsailos</text><text x="13.026" y="1.67" class="g">:</text><text x="14.028" y="1.67" class="h">~</text><text x="16.032" y="1.67" class="h">$</text><text x="18.036" y="1.67" class="g">~/klippy-env/bin/python</text><text x="42.084" y="1.67" class="g">~/klipper/scripts/</text></svg><svg x="3608"><use xlink:href="#a"/><use xlink:href="#b" x="60.996"/><text y="1.67" class="f">pi@mainsailos</text><text x="13.026" y="1.67" class="g">:</text><text x="14.028" y="1.67" class="h">~</text><text x="16.032" y="1.67" class="h">$</text><text x="18.036" y="1.67" class="g">~/klippy-env/bin/python</text><text x="42.084" y="1.67" class="g">~/klipper/scripts/c</text></svg><svg x="3690"><use xlink:href="#a"/><use xlink:href="#b" x="61.996"/><text y="1.67" class="f">pi@mainsailos</text><text x="13.026" y="1.67" class="g">:</text><text x="14.028" y="1.67" class="h">~</text><text x="16.032" y="1.67" class="h">$</text><text x="18.036" y="1.67" class="g">~/klippy-env/bin/python</text><text x="42.084" y="1.67" class="g">~/klipper/scripts/ca</text></svg><svg x="3772"><use xlink:href="#a"/><use xlink:href="#b" x="62.996"/><text y="1.67" class="f">pi@mainsailos</text><text x="13.026" y="1.67" class="g">:</text><text x="14.028" y="1.67" class="h">~</text><text x="16.032" y="1.67" class="h">$</text><text x="18.036" y="1.67" class="g">~/klippy-env/bin/python</text><text x="42.084" y="1.67" class="g">~/klipper/scripts/can</text></svg><svg x="3854"><use xlink:href="#a"/><use xlink:href="#b" x="63.996"/><text y="1.67" class="f">pi@mainsailos</text><text x="13.026" y="1.67" class="g">:</text><text x="14.028" y="1.67" class="h">~</text><text x="16.032" y="1.67" class="h">$</text><text x="18.036" y="1.67" class="g">~/klippy-env/bin/python</text><text x="42.084" y="1.67" class="g">~/klipper/scripts/canb</text></svg><svg x="3936"><use xlink:href="#a"/><use xlink:href="#b" x="64.996"/><text y="1.67" class="f">pi@mainsailos</text><text x="13.026" y="1.67" class="g">:</text><text x="14.028" y="1.67" class="h">~</text><text x="16.032" y="1.67" class="h">$</text><text x="18.036" y="1.67" class="g">~/klippy-env/bin/python</text><text x="42.084" y="1.67" class="g">~/klipper/scripts/canbu</text></svg><svg x="4018"><use xlink:href="#a"/><use xlink:href="#b" x="65.996"/><text y="1.67" class="f">pi@mainsailos</text><text x="13.026" y="1.67" class="g">:</text><text x="14.028" y="1.67" class="h">~</text><text x="16.032" y="1.67" class="h">$</text><text x="18.036" y="1.67" class="g">~/klippy-env/bin/python</text><text x="42.084" y="1.67" class="g">~/klipper/scripts/canbus</text></svg><svg x="4100"><use xlink:href="#a"/><use xlink:href="#b" x="66.996"/><text y="1.67" class="f">pi@mainsailos</text><text x="13.026" y="1.67" class="g">:</text><text x="14.028" y="1.67" class="h">~</text><text x="16.032" y="1.67" class="h">$</text><text x="18.036" y="1.67" class="g">~/klippy-env/bin/python</text><text x="42.084" y="1.67" class="g">~/klipper/scripts/canbus_</text></svg><svg x="4182"><use xlink:href="#a"/><use xlink:href="#b" x="67.996"/><text y="1.67" class="f">pi@mainsailos</text><text x="13.026" y="1.67" class="g">:</text><text x="14.028" y="1.67" class="h">~</text><text x="16.032" y="1.67" class="h">$</text><text x="18.036" y="1.67" class="g">~/klippy-env/bin/python</text><text x="42.084" y="1.67" class="g">~/klipper/scripts/canbus_q</text></svg><svg x="4264"><use xlink:href="#a"/><use xlink:href="#b" x="68.996"/><text y="1.67" class="f">pi@mainsailos</text><text x="13.026" y="1.67" class="g">:</text><text x="14.028" y="1.67" class="h">~</text><text x="16.032" y="1.67" class="h">$</text><text x="18.036" y="1.67" class="g">~/klippy-env/bin/python</text><text x="42.084" y="1.67" class="g">~/klipper/scripts/canbus_qu</text></svg><svg x="4346"><use xlink:href="#a"/><use xlink:href="#b" x="69.996"/><text y="1.67" class="f">pi@mainsailos</text><text x="13.026" y="1.67" class="g">:</text><text x="14.028" y="1.67" class="h">~</text><text x="16.032" y="1.67" class="h">$</text><text x="18.036" y="1.67" class="g">~/klippy-env/bin/python</text><text x="42.084" y="1.67" class="g">~/klipper/scripts/canbus_que</text></svg><svg x="4428"><use xlink:href="#a"/><use xlink:href="#b" x="70.996"/><text y="1.67" class="f">pi@mainsailos</text><text x="13.026" y="1.67" class="g">:</text><text x="14.028" y="1.67" class="h">~</text><text x="16.032" y="1.67" class="h">$</text><text x="18.036" y="1.67" class="g">~/klippy-env/bin/python</text><text x="42.084" y="1.67" class="g">~/klipper/scripts/canbus_quer</text></svg><svg x="4510"><use xlink:href="#a"/><use xlink:href="#b" x="71.996"/><text y="1.67" class="f">pi@mainsailos</text><text x="13.026" y="1.67" class="g">:</text><text x="14.028" y="1.67" class="h">~</text><text x="16.032" y="1.67" class="h">$</text><text x="18.036" y="1.67" class="g">~/klippy-env/bin/python</text><text x="42.084" y="1.67" class="g">~/klipper/scripts/canbus_query</text></svg><svg x="4592"><use xlink:href="#a"/><use xlink:href="#b" x="72.996"/><text y="1.67" class="f">pi@mainsailos</text><text x="13.026" y="1.67" class="g">:</text><text x="14.028" y="1.67" class="h">~</text><text x="16.032" y="1.67" class="h">$</text><text x="18.036" y="1.67" class="g">~/klippy-env/bin/python</text><text x="42.084" y="1.67" class="g">~/klipper/scripts/canbus_query.</text></svg><svg x="4674"><use xlink:href="#a"/><use xlink:href="#b" x="73.996"/><text y="1.67" class="f">pi@mainsailos</text><text x="13.026" y="1.67" class="g">:</text><text x="14.028" y="1.67" class="h">~</text><text x="16.032" y="1.67" class="h">$</text><text x="18.036" y="1.67" class="g">~/klippy-env/bin/python</text><text x="42.084" y="1.67" class="g">~/klipper/scripts/canbus_query.p</text></svg><svg x="4756"><use xlink:href="#a"/><use xlink:href="#b" x="74.996"/><use xlink:href="#3"/></svg><svg x="4838"><use xlink:href="#a"/><use xlink:href="#b" x="75.996"/><use xlink:href="#3"/></svg><svg x="4920"><use xlink:href="#a"/><use xlink:href="#b" x="76.996"/><text y="1.67" class="f">pi@mainsailos</text><text x="13.026" y="1.67" class="g">:</text><text x="14.028" y="1.67" class="h">~</text><text x="16.032" y="1.67" class="h">$</text><text x="18.036" y="1.67" class="g">~/klippy-env/bin/python</text><text x="42.084" y="1.67" class="g">~/klipper/scripts/canbus_query.py</text><text x="76.152" y="1.67" class="g">c</text></svg><svg x="5002"><use xlink:href="#a"/><use xlink:href="#b" x="77.996"/><text y="1.67" class="f">pi@mainsailos</text><text x="13.026" y="1.67" class="g">:</text><text x="14.028" y="1.67" class="h">~</text><text x="16.032" y="1.67" class="h">$</text><text x="18.036" y="1.67" class="g">~/klippy-env/bin/python</text><text x="42.084" y="1.67" class="g">~/klipper/scripts/canbus_query.py</text><text x="76.152" y="1.67" class="g">ca</text></svg><svg x="5084"><use xlink:href="#a"/><use xlink:href="#b" x="78.996"/><text y="1.67" class="f">pi@mainsailos</text><text x="13.026" y="1.67" class="g">:</text><text x="14.028" y="1.67" class="h">~</text><text x="16.032" y="1.67" class="h">$</text><text x="18.036" y="1.67" class="g">~/klippy-env/bin/python</text><text x="42.084" y="1.67" class="g">~/klipper/scripts/canbus_query.py</text><text x="76.152" y="1.67" class="g">can</text></svg><svg x="5166"><use xlink:href="#a"/><use xlink:href="#b" x="79.996"/><use xlink:href="#4"/></svg><svg x="5248"><use xlink:href="#a"/><use xlink:href="#b" x="-.004" y="2.146"/><use xlink:href="#4"/></svg><svg x="5330"><use xlink:href="#a"/><use xlink:href="#b" x="-.004" y="4.317"/><use xlink:href="#4"/><use xlink:href="#5" y="2.171"/></svg><svg x="5412"><use xlink:href="#a"/><use xlink:href="#b" x="-.004" y="6.488"/><use xlink:href="#4"/><use xlink:href="#5" y="2.171"/><use xlink:href="#6" y="4.342"/></svg><svg x="5494"><use xlink:href="#a"/><use xlink:href="#b" x="17.996" y="6.488"/><use xlink:href="#4"/><use xlink:href="#5" y="2.171"/><use xlink:href="#6" y="4.342"/><use xlink:href="#1" y="6.513"/></svg><svg x="5576"><use xlink:href="#a"/><use xlink:href="#b" x="17.996" y="6.488"/><use xlink:href="#4"/><use xlink:href="#5" y="2.171"/><use xlink:href="#6" y="4.342"/><use xlink:href="#1" y="6.513"/></svg></svg></g></g></svg></svg>