<svg xmlns="http://www.w3.org/2000/svg" xmlns:xlink="http://www.w3.org/1999/xlink" width="1700" height="320.52"><rect width="1700" height="320.52" rx="5" ry="5" class="a"/><svg y="0%" x="0%"><circle cx="20" cy="20" r="6" fill="#ff5f58"/><circle cx="40" cy="20" r="6" fill="#ffbd2e"/><circle cx="60" cy="20" r="6" fill="#18c132"/></svg><svg height="260.52" viewBox="0 0 164 26.052" width="1640" x="25" xmlns="http://www.w3.org/2000/svg" xmlns:xlink="http://www.w3.org/1999/xlink" y="50"><style>@keyframes k{0%{transform:translateX(-164px)}14.3%{transform:translateX(-328px)}14.6%{transform:translateX(-492px)}15%{transform:translateX(-656px)}15.4%{transform:translateX(-820px)}15.7%{transform:translateX(-984px)}16.1%{transform:translateX(-1148px)}16.4%{transform:translateX(-1312px)}16.8%{transform:translateX(-1476px)}17.1%{transform:translateX(-1640px)}17.5%{transform:translateX(-1804px)}17.9%{transform:translateX(-1968px)}28.6%{transform:translateX(-2296px)}32.1%{transform:translateX(-2952px)}42.9%{transform:translateX(-3116px)}to{transform:translateX(-3280px)}}.a{fill:#282d35}.f,.g,.h{white-space:pre}.f{fill:#a8cc8c;font-weight:700}.g,.h{fill:#b9c0cb}.h{fill:#71bef2;font-weight:700}</style><g font-family="Monaco,Consolas,Menlo,'Bitstream Vera Sans Mono','Powerline Symbols',monospace" font-size="1.67"><defs><symbol id="1"><text y="1.67" class="f">pi@mainsailos</text><text x="13.026" y="1.67" class="g">:</text><text x="14.028" y="1.67" class="h">~</text><text x="16.032" y="1.67" class="h">$</text></symbol><symbol id="2"><text y="1.67" class="f">pi@mainsailos</text><text x="13.026" y="1.67" class="g">:</text><text x="14.028" y="1.67" class="h">~</text><text x="16.032" y="1.67" class="h">$</text><text x="18.036" y="1.67" class="g">dfu-util</text></symbol><symbol id="3"><text y="1.67" class="f">pi@mainsailos</text><text x="13.026" y="1.67" class="g">:</text><text x="14.028" y="1.67" class="h">~</text><text x="16.032" y="1.67" class="h">$</text><text x="18.036" y="1.67" class="g">dfu-util</text><text x="27.054" y="1.67" class="g">-l</text></symbol><symbol id="4"><text y="1.67" class="g">dfu-util</text><text x="9.018" y="1.67" class="g">0.9</text></symbol><symbol id="5"><text y="1.67" class="g">Copyright</text><text x="10.02" y="1.67" class="g">2005-2009</text><text x="20.04" y="1.67" class="g">Weston</text><text x="27.054" y="1.67" class="g">Schmidt,</text><text x="36.072" y="1.67" class="g">Harald</text><text x="43.086" y="1.67" class="g">Welte</text><text x="49.098" y="1.67" class="g">and</text><text x="53.106" y="1.67" class="g">OpenMoko</text><text x="62.124" y="1.67" class="g">Inc.</text></symbol><symbol id="6"><text y="1.67" class="g">Copyright</text><text x="10.02" y="1.67" class="g">2010-2016</text><text x="20.04" y="1.67" class="g">Tormod</text><text x="27.054" y="1.67" class="g">Volden</text><text x="34.068" y="1.67" class="g">and</text><text x="38.076" y="1.67" class="g">Stefan</text><text x="45.09" y="1.67" class="g">Schmidt</text></symbol><symbol id="7"><text y="1.67" class="g">This</text><text x="5.01" y="1.67" class="g">program</text><text x="13.026" y="1.67" class="g">is</text><text x="16.032" y="1.67" class="g">Free</text><text x="21.042" y="1.67" class="g">Software</text><text x="30.06" y="1.67" class="g">and</text><text x="34.068" y="1.67" class="g">has</text><text x="38.076" y="1.67" class="g">ABSOLUTELY</text><text x="49.098" y="1.67" class="g">NO</text><text x="52.104" y="1.67" class="g">WARRANTY</text></symbol><symbol id="8"><text y="1.67" class="g">Please</text><text x="7.014" y="1.67" class="g">report</text><text x="14.028" y="1.67" class="g">bugs</text><text x="19.038" y="1.67" class="g">to</text><text x="22.044" y="1.67" class="g">http://sourceforge.net/p/dfu-util/tickets/</text></symbol><symbol id="9"><text y="1.67" class="g">Found</text><text x="6.012" y="1.67" class="g">DFU:</text><text x="11.022" y="1.67" class="g">[0483:df11]</text><text x="23.046" y="1.67" class="g">ver=2200,</text><text x="33.066" y="1.67" class="g">devnum=6,</text><text x="43.086" y="1.67" class="g">cfg=1,</text><text x="50.1" y="1.67" class="g">intf=0,</text><text x="58.116" y="1.67" class="g">path=&quot;1-1.2&quot;,</text><text x="72.144" y="1.67" class="g">alt=3,</text><text x="79.158" y="1.67" class="g">name=&quot;@Device</text><text x="93.186" y="1.67" class="g">Feature/0xFFFF0000/01*004</text><text x="119.238" y="1.67" class="g">e&quot;,</text><text x="123.246" y="1.67" class="g">serial=&quot;STM32FxSTM32&quot;</text></symbol><symbol id="10"><text y="1.67" class="g">Found</text><text x="6.012" y="1.67" class="g">DFU:</text><text x="11.022" y="1.67" class="g">[0483:df11]</text><text x="23.046" y="1.67" class="g">ver=2200,</text><text x="33.066" y="1.67" class="g">devnum=6,</text><text x="43.086" y="1.67" class="g">cfg=1,</text><text x="50.1" y="1.67" class="g">intf=0,</text><text x="58.116" y="1.67" class="g">path=&quot;1-1.2&quot;,</text><text x="72.144" y="1.67" class="g">alt=2,</text><text x="79.158" y="1.67" class="g">name=&quot;@OTP</text><text x="90.18" y="1.67" class="g">Memory</text><text x="97.194" y="1.67" class="g">/0x1FFF7800/01*512</text><text x="116.232" y="1.67" class="g">e,01*016</text><text x="125.25" y="1.67" class="g">e&quot;,</text><text x="129.258" y="1.67" class="g">serial=&quot;STM32FxSTM32&quot;</text></symbol><symbol id="11"><text y="1.67" class="g">Found</text><text x="6.012" y="1.67" class="g">DFU:</text><text x="11.022" y="1.67" class="g">[0483:df11]</text><text x="23.046" y="1.67" class="g">ver=2200,</text><text x="33.066" y="1.67" class="g">devnum=6,</text><text x="43.086" y="1.67" class="g">cfg=1,</text><text x="50.1" y="1.67" class="g">intf=0,</text><text x="58.116" y="1.67" class="g">path=&quot;1-1.2&quot;,</text><text x="72.144" y="1.67" class="g">alt=1,</text><text x="79.158" y="1.67" class="g">name=&quot;@Option</text><text x="93.186" y="1.67" class="g">Bytes</text><text x="100.2" y="1.67" class="g">/0x1FFFC000/01*016</text><text x="119.238" y="1.67" class="g">e&quot;,</text><text x="123.246" y="1.67" class="g">serial=&quot;STM32FxSTM32&quot;</text></symbol><symbol id="12"><text y="1.67" class="g">Found</text><text x="6.012" y="1.67" class="g">DFU:</text><text x="11.022" y="1.67" class="g">[0483:df11]</text><text x="23.046" y="1.67" class="g">ver=2200,</text><text x="33.066" y="1.67" class="g">devnum=6,</text><text x="43.086" y="1.67" class="g">cfg=1,</text><text x="50.1" y="1.67" class="g">intf=0,</text><text x="58.116" y="1.67" class="g">path=&quot;1-1.2&quot;,</text><text x="72.144" y="1.67" class="g">alt=0,</text><text x="79.158" y="1.67" class="g">name=&quot;@Internal</text><text x="95.19" y="1.67" class="g">Flash</text><text x="102.204" y="1.67" class="g">/0x08000000/04*016Kg,01*064Kg,03*128Kg&quot;,</text><text x="143.286" y="1.67" class="g">serial=&quot;STM32FxSTM32&quot;</text></symbol><symbol id="a"><path fill="transparent" d="M0 0h164v13H0z"/></symbol><symbol id="b"><path fill="#6f7683" d="M0 0h1.102v2.171H0z"/></symbol></defs><path class="a" d="M0 0h164v26.052H0z"/><g style="animation-duration:14s;animation-iteration-count:infinite;animation-name:k;animation-timing-function:steps(1,end)"><svg width="3444"><svg><use xlink:href="#a"/><use xlink:href="#b" x="-.004"/></svg><svg x="164"><use xlink:href="#a"/><use xlink:href="#b" x="17.996"/><use xlink:href="#1"/></svg><svg x="328"><use xlink:href="#a"/><use xlink:href="#b" x="18.996"/><text y="1.67" class="f">pi@mainsailos</text><text x="13.026" y="1.67" class="g">:</text><text x="14.028" y="1.67" class="h">~</text><text x="16.032" y="1.67" class="h">$</text><text x="18.036" y="1.67" class="g">d</text></svg><svg x="492"><use xlink:href="#a"/><use xlink:href="#b" x="19.996"/><text y="1.67" class="f">pi@mainsailos</text><text x="13.026" y="1.67" class="g">:</text><text x="14.028" y="1.67" class="h">~</text><text x="16.032" y="1.67" class="h">$</text><text x="18.036" y="1.67" class="g">df</text></svg><svg x="656"><use xlink:href="#a"/><use xlink:href="#b" x="20.996"/><text y="1.67" class="f">pi@mainsailos</text><text x="13.026" y="1.67" class="g">:</text><text x="14.028" y="1.67" class="h">~</text><text x="16.032" y="1.67" class="h">$</text><text x="18.036" y="1.67" class="g">dfu</text></svg><svg x="820"><use xlink:href="#a"/><use xlink:href="#b" x="21.996"/><text y="1.67" class="f">pi@mainsailos</text><text x="13.026" y="1.67" class="g">:</text><text x="14.028" y="1.67" class="h">~</text><text x="16.032" y="1.67" class="h">$</text><text x="18.036" y="1.67" class="g">dfu-</text></svg><svg x="984"><use xlink:href="#a"/><use xlink:href="#b" x="22.996"/><text y="1.67" class="f">pi@mainsailos</text><text x="13.026" y="1.67" class="g">:</text><text x="14.028" y="1.67" class="h">~</text><text x="16.032" y="1.67" class="h">$</text><text x="18.036" y="1.67" class="g">dfu-u</text></svg><svg x="1148"><use xlink:href="#a"/><use xlink:href="#b" x="23.996"/><text y="1.67" class="f">pi@mainsailos</text><text x="13.026" y="1.67" class="g">:</text><text x="14.028" y="1.67" class="h">~</text><text x="16.032" y="1.67" class="h">$</text><text x="18.036" y="1.67" class="g">dfu-ut</text></svg><svg x="1312"><use xlink:href="#a"/><use xlink:href="#b" x="24.996"/><text y="1.67" class="f">pi@mainsailos</text><text x="13.026" y="1.67" class="g">:</text><text x="14.028" y="1.67" class="h">~</text><text x="16.032" y="1.67" class="h">$</text><text x="18.036" y="1.67" class="g">dfu-uti</text></svg><svg x="1476"><use xlink:href="#a"/><use xlink:href="#b" x="25.996"/><use xlink:href="#2"/></svg><svg x="1640"><use xlink:href="#a"/><use xlink:href="#b" x="26.996"/><use xlink:href="#2"/></svg><svg x="1804"><use xlink:href="#a"/><use xlink:href="#b" x="27.996"/><text y="1.67" class="f">pi@mainsailos</text><text x="13.026" y="1.67" class="g">:</text><text x="14.028" y="1.67" class="h">~</text><text x="16.032" y="1.67" class="h">$</text><text x="18.036" y="1.67" class="g">dfu-util</text><text x="27.054" y="1.67" class="g">-</text></svg><svg x="1968"><use xlink:href="#a"/><use xlink:href="#b" x="28.996"/><use xlink:href="#3"/></svg><svg x="2132"><use xlink:href="#a"/><use xlink:href="#b" x="-.004" y="2.146"/><use xlink:href="#3"/></svg><svg x="2296"><use xlink:href="#a"/><use xlink:href="#b" x="-.004" y="17.343"/><use xlink:href="#3"/><use xlink:href="#4" y="2.171"/><use xlink:href="#5" y="6.513"/><use xlink:href="#6" y="8.684"/><use xlink:href="#7" y="10.855"/><use xlink:href="#8" y="13.026"/></svg><svg x="2460"><use xlink:href="#a"/><use xlink:href="#b" x="-.004" y="19.514"/><use xlink:href="#3"/><use xlink:href="#4" y="2.171"/><use xlink:href="#5" y="6.513"/><use xlink:href="#6" y="8.684"/><use xlink:href="#7" y="10.855"/><use xlink:href="#8" y="13.026"/><use xlink:href="#9" y="17.368"/></svg><svg x="2624"><use xlink:href="#a"/><use xlink:href="#b" x="-.004" y="21.685"/><use xlink:href="#3"/><use xlink:href="#4" y="2.171"/><use xlink:href="#5" y="6.513"/><use xlink:href="#6" y="8.684"/><use xlink:href="#7" y="10.855"/><use xlink:href="#8" y="13.026"/><use xlink:href="#9" y="17.368"/><use xlink:href="#10" y="19.539"/></svg><svg x="2788"><use xlink:href="#a"/><use xlink:href="#b" x="-.004" y="23.856"/><use xlink:href="#3"/><use xlink:href="#4" y="2.171"/><use xlink:href="#5" y="6.513"/><use xlink:href="#6" y="8.684"/><use xlink:href="#7" y="10.855"/><use xlink:href="#8" y="13.026"/><use xlink:href="#9" y="17.368"/><use xlink:href="#10" y="19.539"/><use xlink:href="#11" y="21.71"/></svg><svg x="2952"><use xlink:href="#a"/><use xlink:href="#b" x="-.004" y="21.685"/><use xlink:href="#5" y="2.171"/><use xlink:href="#6" y="4.342"/><use xlink:href="#7" y="6.513"/><use xlink:href="#8" y="8.684"/><use xlink:href="#9" y="13.026"/><use xlink:href="#10" y="15.197"/><use xlink:href="#11" y="17.368"/><use xlink:href="#12" y="19.539"/></svg><svg x="3116"><use xlink:href="#a"/><use xlink:href="#b" x="17.996" y="21.685"/><use xlink:href="#5" y="2.171"/><use xlink:href="#6" y="4.342"/><use xlink:href="#7" y="6.513"/><use xlink:href="#8" y="8.684"/><use xlink:href="#9" y="13.026"/><use xlink:href="#10" y="15.197"/><use xlink:href="#11" y="17.368"/><use xlink:href="#12" y="19.539"/><use xlink:href="#1" y="21.71"/></svg><svg x="3280"><use xlink:href="#a"/><use xlink:href="#b" x="17.996" y="21.685"/><use xlink:href="#5" y="2.171"/><use xlink:href="#6" y="4.342"/><use xlink:href="#7" y="6.513"/><use xlink:href="#8" y="8.684"/><use xlink:href="#9" y="13.026"/><use xlink:href="#10" y="15.197"/><use xlink:href="#11" y="17.368"/><use xlink:href="#12" y="19.539"/><use xlink:href="#1" y="21.71"/></svg></svg></g></g></svg></svg>