<svg xmlns="http://www.w3.org/2000/svg" xmlns:xlink="http://www.w3.org/1999/xlink" width="1520" height="320.52"><rect width="1520" height="320.52" rx="5" ry="5" class="a"/><svg y="0%" x="0%"><circle cx="20" cy="20" r="6" fill="#ff5f58"/><circle cx="40" cy="20" r="6" fill="#ffbd2e"/><circle cx="60" cy="20" r="6" fill="#18c132"/></svg><svg height="260.52" viewBox="0 0 146 26.052" width="1460" x="25" xmlns="http://www.w3.org/2000/svg" xmlns:xlink="http://www.w3.org/1999/xlink" y="50"><style>@keyframes k{0%{transform:translateX(-146px)}20%{transform:translateX(-292px)}20.5%{transform:translateX(-438px)}21%{transform:translateX(-584px)}21.5%{transform:translateX(-730px)}22%{transform:translateX(-876px)}22.5%{transform:translateX(-1022px)}23%{transform:translateX(-1168px)}23.5%{transform:translateX(-1314px)}24%{transform:translateX(-1460px)}24.5%{transform:translateX(-1606px)}25%{transform:translateX(-1752px)}40%{transform:translateX(-2044px)}45%{transform:translateX(-2482px)}50%{transform:translateX(-2628px)}to{transform:translateX(-2774px)}}.a{fill:#282d35}.f,.g,.h{white-space:pre}.f{fill:#a8cc8c;font-weight:700}.g,.h{fill:#b9c0cb}.h{fill:#71bef2;font-weight:700}</style><g font-family="Monaco,Consolas,Menlo,'Bitstream Vera Sans Mono','Powerline Symbols',monospace" font-size="1.67"><defs><symbol id="1"><text y="1.67" class="f">pi@mainsailos</text><text x="13.026" y="1.67" class="g">:</text><text x="14.028" y="1.67" class="h">~</text><text x="16.032" y="1.67" class="h">$</text></symbol><symbol id="2"><text y="1.67" class="f">pi@mainsailos</text><text x="13.026" y="1.67" class="g">:</text><text x="14.028" y="1.67" class="h">~</text><text x="16.032" y="1.67" class="h">$</text><text x="18.036" y="1.67" class="g">dfu-util</text></symbol><symbol id="3"><text y="1.67" class="f">pi@mainsailos</text><text x="13.026" y="1.67" class="g">:</text><text x="14.028" y="1.67" class="h">~</text><text x="16.032" y="1.67" class="h">$</text><text x="18.036" y="1.67" class="g">dfu-util</text><text x="27.054" y="1.67" class="g">-l</text></symbol><symbol id="4"><text y="1.67" class="g">dfu-util</text><text x="9.018" y="1.67" class="g">0.9</text></symbol><symbol id="5"><text y="1.67" class="g">Copyright</text><text x="10.02" y="1.67" class="g">2005-2009</text><text x="20.04" y="1.67" class="g">Weston</text><text x="27.054" y="1.67" class="g">Schmidt,</text><text x="36.072" y="1.67" class="g">Harald</text><text x="43.086" y="1.67" class="g">Welte</text><text x="49.098" y="1.67" class="g">and</text><text x="53.106" y="1.67" class="g">OpenMoko</text><text x="62.124" y="1.67" class="g">Inc.</text></symbol><symbol id="6"><text y="1.67" class="g">Copyright</text><text x="10.02" y="1.67" class="g">2010-2016</text><text x="20.04" y="1.67" class="g">Tormod</text><text x="27.054" y="1.67" class="g">Volden</text><text x="34.068" y="1.67" class="g">and</text><text x="38.076" y="1.67" class="g">Stefan</text><text x="45.09" y="1.67" class="g">Schmidt</text></symbol><symbol id="7"><text y="1.67" class="g">This</text><text x="5.01" y="1.67" class="g">program</text><text x="13.026" y="1.67" class="g">is</text><text x="16.032" y="1.67" class="g">Free</text><text x="21.042" y="1.67" class="g">Software</text><text x="30.06" y="1.67" class="g">and</text><text x="34.068" y="1.67" class="g">has</text><text x="38.076" y="1.67" class="g">ABSOLUTELY</text><text x="49.098" y="1.67" class="g">NO</text><text x="52.104" y="1.67" class="g">WARRANTY</text></symbol><symbol id="8"><text y="1.67" class="g">Please</text><text x="7.014" y="1.67" class="g">report</text><text x="14.028" y="1.67" class="g">bugs</text><text x="19.038" y="1.67" class="g">to</text><text x="22.044" y="1.67" class="g">http://sourceforge.net/p/dfu-util/tickets/</text></symbol><symbol id="9"><text y="1.67" class="g">Found</text><text x="6.012" y="1.67" class="g">DFU:</text><text x="11.022" y="1.67" class="g">[0483:df11]</text><text x="23.046" y="1.67" class="g">ver=0200,</text><text x="33.066" y="1.67" class="g">devnum=4,</text><text x="43.086" y="1.67" class="g">cfg=1,</text><text x="50.1" y="1.67" class="g">intf=0,</text><text x="58.116" y="1.67" class="g">path=&quot;1-1.3&quot;,</text><text x="72.144" y="1.67" class="g">alt=2,</text><text x="79.158" y="1.67" class="g">name=&quot;@Internal</text><text x="95.19" y="1.67" class="g">Flash</text><text x="103.206" y="1.67" class="g">/0x08000000/64*02Kg&quot;,</text><text x="125.25" y="1.67" class="g">serial=&quot;SERIALSERIAL&quot;</text></symbol><symbol id="10"><text y="1.67" class="g">Found</text><text x="6.012" y="1.67" class="g">DFU:</text><text x="11.022" y="1.67" class="g">[0483:df11]</text><text x="23.046" y="1.67" class="g">ver=0200,</text><text x="33.066" y="1.67" class="g">devnum=4,</text><text x="43.086" y="1.67" class="g">cfg=1,</text><text x="50.1" y="1.67" class="g">intf=0,</text><text x="58.116" y="1.67" class="g">path=&quot;1-1.3&quot;,</text><text x="72.144" y="1.67" class="g">alt=1,</text><text x="79.158" y="1.67" class="g">name=&quot;@Internal</text><text x="95.19" y="1.67" class="g">Flash</text><text x="103.206" y="1.67" class="g">/0x08000000/64*02Kg&quot;,</text><text x="125.25" y="1.67" class="g">serial=&quot;SERIALSERIAL&quot;</text></symbol><symbol id="11"><text y="1.67" class="g">Found</text><text x="6.012" y="1.67" class="g">DFU:</text><text x="11.022" y="1.67" class="g">[0483:df11]</text><text x="23.046" y="1.67" class="g">ver=0200,</text><text x="33.066" y="1.67" class="g">devnum=4,</text><text x="43.086" y="1.67" class="g">cfg=1,</text><text x="50.1" y="1.67" class="g">intf=0,</text><text x="58.116" y="1.67" class="g">path=&quot;1-1.3&quot;,</text><text x="72.144" y="1.67" class="g">alt=0,</text><text x="79.158" y="1.67" class="g">name=&quot;@Internal</text><text x="95.19" y="1.67" class="g">Flash</text><text x="103.206" y="1.67" class="g">/0x08000000/64*02Kg&quot;,</text><text x="125.25" y="1.67" class="g">serial=&quot;SERIALSERIAL&quot;</text></symbol><symbol id="a"><path fill="transparent" d="M0 0h146v13H0z"/></symbol><symbol id="b"><path fill="#6f7683" d="M0 0h1.102v2.171H0z"/></symbol></defs><path class="a" d="M0 0h146v26.052H0z"/><g style="animation-duration:10s;animation-iteration-count:infinite;animation-name:k;animation-timing-function:steps(1,end)"><svg width="2920"><svg><use xlink:href="#a"/><use xlink:href="#b" x="-.004"/></svg><svg x="146"><use xlink:href="#a"/><use xlink:href="#b" x="17.996"/><use xlink:href="#1"/></svg><svg x="292"><use xlink:href="#a"/><use xlink:href="#b" x="18.996"/><text y="1.67" class="f">pi@mainsailos</text><text x="13.026" y="1.67" class="g">:</text><text x="14.028" y="1.67" class="h">~</text><text x="16.032" y="1.67" class="h">$</text><text x="18.036" y="1.67" class="g">d</text></svg><svg x="438"><use xlink:href="#a"/><use xlink:href="#b" x="19.996"/><text y="1.67" class="f">pi@mainsailos</text><text x="13.026" y="1.67" class="g">:</text><text x="14.028" y="1.67" class="h">~</text><text x="16.032" y="1.67" class="h">$</text><text x="18.036" y="1.67" class="g">df</text></svg><svg x="584"><use xlink:href="#a"/><use xlink:href="#b" x="20.996"/><text y="1.67" class="f">pi@mainsailos</text><text x="13.026" y="1.67" class="g">:</text><text x="14.028" y="1.67" class="h">~</text><text x="16.032" y="1.67" class="h">$</text><text x="18.036" y="1.67" class="g">dfu</text></svg><svg x="730"><use xlink:href="#a"/><use xlink:href="#b" x="21.996"/><text y="1.67" class="f">pi@mainsailos</text><text x="13.026" y="1.67" class="g">:</text><text x="14.028" y="1.67" class="h">~</text><text x="16.032" y="1.67" class="h">$</text><text x="18.036" y="1.67" class="g">dfu-</text></svg><svg x="876"><use xlink:href="#a"/><use xlink:href="#b" x="22.996"/><text y="1.67" class="f">pi@mainsailos</text><text x="13.026" y="1.67" class="g">:</text><text x="14.028" y="1.67" class="h">~</text><text x="16.032" y="1.67" class="h">$</text><text x="18.036" y="1.67" class="g">dfu-u</text></svg><svg x="1022"><use xlink:href="#a"/><use xlink:href="#b" x="23.996"/><text y="1.67" class="f">pi@mainsailos</text><text x="13.026" y="1.67" class="g">:</text><text x="14.028" y="1.67" class="h">~</text><text x="16.032" y="1.67" class="h">$</text><text x="18.036" y="1.67" class="g">dfu-ut</text></svg><svg x="1168"><use xlink:href="#a"/><use xlink:href="#b" x="24.996"/><text y="1.67" class="f">pi@mainsailos</text><text x="13.026" y="1.67" class="g">:</text><text x="14.028" y="1.67" class="h">~</text><text x="16.032" y="1.67" class="h">$</text><text x="18.036" y="1.67" class="g">dfu-uti</text></svg><svg x="1314"><use xlink:href="#a"/><use xlink:href="#b" x="25.996"/><use xlink:href="#2"/></svg><svg x="1460"><use xlink:href="#a"/><use xlink:href="#b" x="26.996"/><use xlink:href="#2"/></svg><svg x="1606"><use xlink:href="#a"/><use xlink:href="#b" x="27.996"/><text y="1.67" class="f">pi@mainsailos</text><text x="13.026" y="1.67" class="g">:</text><text x="14.028" y="1.67" class="h">~</text><text x="16.032" y="1.67" class="h">$</text><text x="18.036" y="1.67" class="g">dfu-util</text><text x="27.054" y="1.67" class="g">-</text></svg><svg x="1752"><use xlink:href="#a"/><use xlink:href="#b" x="28.996"/><use xlink:href="#3"/></svg><svg x="1898"><use xlink:href="#a"/><use xlink:href="#b" x="-.004" y="2.146"/><use xlink:href="#3"/></svg><svg x="2044"><use xlink:href="#a"/><use xlink:href="#b" x="-.004" y="17.343"/><use xlink:href="#3"/><use xlink:href="#4" y="2.171"/><use xlink:href="#5" y="6.513"/><use xlink:href="#6" y="8.684"/><use xlink:href="#7" y="10.855"/><use xlink:href="#8" y="13.026"/></svg><svg x="2190"><use xlink:href="#a"/><use xlink:href="#b" x="-.004" y="19.514"/><use xlink:href="#3"/><use xlink:href="#4" y="2.171"/><use xlink:href="#5" y="6.513"/><use xlink:href="#6" y="8.684"/><use xlink:href="#7" y="10.855"/><use xlink:href="#8" y="13.026"/><use xlink:href="#9" y="17.368"/></svg><svg x="2336"><use xlink:href="#a"/><use xlink:href="#b" x="-.004" y="21.685"/><use xlink:href="#3"/><use xlink:href="#4" y="2.171"/><use xlink:href="#5" y="6.513"/><use xlink:href="#6" y="8.684"/><use xlink:href="#7" y="10.855"/><use xlink:href="#8" y="13.026"/><use xlink:href="#9" y="17.368"/><use xlink:href="#10" y="19.539"/></svg><svg x="2482"><use xlink:href="#a"/><use xlink:href="#b" x="-.004" y="21.685"/><use xlink:href="#4"/><use xlink:href="#5" y="4.342"/><use xlink:href="#6" y="6.513"/><use xlink:href="#7" y="8.684"/><use xlink:href="#8" y="10.855"/><use xlink:href="#9" y="15.197"/><use xlink:href="#10" y="17.368"/><use xlink:href="#11" y="19.539"/></svg><svg x="2628"><use xlink:href="#a"/><use xlink:href="#b" x="17.996" y="21.685"/><use xlink:href="#4"/><use xlink:href="#5" y="4.342"/><use xlink:href="#6" y="6.513"/><use xlink:href="#7" y="8.684"/><use xlink:href="#8" y="10.855"/><use xlink:href="#9" y="15.197"/><use xlink:href="#10" y="17.368"/><use xlink:href="#11" y="19.539"/><use xlink:href="#1" y="21.71"/></svg><svg x="2774"><use xlink:href="#a"/><use xlink:href="#b" x="17.996" y="21.685"/><use xlink:href="#4"/><use xlink:href="#5" y="4.342"/><use xlink:href="#6" y="6.513"/><use xlink:href="#7" y="8.684"/><use xlink:href="#8" y="10.855"/><use xlink:href="#9" y="15.197"/><use xlink:href="#10" y="17.368"/><use xlink:href="#11" y="19.539"/><use xlink:href="#1" y="21.71"/></svg></svg></g></g></svg></svg>