<svg xmlns="http://www.w3.org/2000/svg" xmlns:xlink="http://www.w3.org/1999/xlink" width="860" height="211.97"><rect width="860" height="211.97" rx="5" ry="5" class="a"/><svg y="0%" x="0%"><circle cx="20" cy="20" r="6" fill="#ff5f58"/><circle cx="40" cy="20" r="6" fill="#ffbd2e"/><circle cx="60" cy="20" r="6" fill="#18c132"/></svg><svg height="151.97" viewBox="0 0 80 15.197" width="800" x="25" xmlns="http://www.w3.org/2000/svg" xmlns:xlink="http://www.w3.org/1999/xlink" y="50"><style>@keyframes k{0%{transform:translateX(-80px)}13.3%{transform:translateX(-160px)}13.7%{transform:translateX(-240px)}14%{transform:translateX(-320px)}14.3%{transform:translateX(-400px)}14.7%{transform:translateX(-480px)}15%{transform:translateX(-560px)}15.3%{transform:translateX(-640px)}15.7%{transform:translateX(-720px)}16%{transform:translateX(-800px)}16.3%{transform:translateX(-880px)}16.7%{transform:translateX(-960px)}17%{transform:translateX(-1040px)}17.3%{transform:translateX(-1120px)}17.7%{transform:translateX(-1200px)}18%{transform:translateX(-1280px)}18.3%{transform:translateX(-1360px)}18.7%{transform:translateX(-1440px)}19%{transform:translateX(-1520px)}19.3%{transform:translateX(-1600px)}26.3%{transform:translateX(-3280px)}20%{transform:translateX(-1760px)}20.3%{transform:translateX(-1840px)}20.7%{transform:translateX(-1920px)}21%{transform:translateX(-2000px)}21.3%{transform:translateX(-2080px)}21.7%{transform:translateX(-2160px)}22%{transform:translateX(-2240px)}22.3%{transform:translateX(-2320px)}22.7%{transform:translateX(-2400px)}23%{transform:translateX(-2480px)}23.3%{transform:translateX(-2560px)}23.7%{transform:translateX(-2640px)}24%{transform:translateX(-2720px)}24.3%{transform:translateX(-2800px)}24.7%{transform:translateX(-2880px)}25%{transform:translateX(-2960px)}25.3%{transform:translateX(-3040px)}25.7%{transform:translateX(-3120px)}26%{transform:translateX(-3200px)}26.7%{transform:translateX(-3360px)}27%{transform:translateX(-3440px)}27.3%{transform:translateX(-3520px)}27.7%{transform:translateX(-3600px)}28%{transform:translateX(-3680px)}28.3%{transform:translateX(-3760px)}28.7%{transform:translateX(-3840px)}29%{transform:translateX(-3920px)}29.3%{transform:translateX(-4000px)}29.7%{transform:translateX(-4080px)}30%{transform:translateX(-4160px)}30.3%{transform:translateX(-4240px)}30.7%{transform:translateX(-4320px)}31%{transform:translateX(-4400px)}31.3%{transform:translateX(-4480px)}31.7%{transform:translateX(-4560px)}32%{transform:translateX(-4640px)}32.3%{transform:translateX(-4720px)}32.7%{transform:translateX(-4800px)}33%{transform:translateX(-4880px)}33.3%{transform:translateX(-4960px)}33.7%{transform:translateX(-5040px)}40%{transform:translateX(-5120px)}50%{transform:translateX(-5200px)}60%{transform:translateX(-5280px)}66.7%{transform:translateX(-5360px)}to{transform:translateX(-5440px)}}.a{fill:#282d35}.f,.g,.h{white-space:pre}.f{fill:#a8cc8c;font-weight:700}.g,.h{fill:#b9c0cb}.h{fill:#71bef2;font-weight:700}</style><g font-family="Monaco,Consolas,Menlo,'Bitstream Vera Sans Mono','Powerline Symbols',monospace" font-size="1.67"><defs><symbol id="1"><text y="1.67" class="f">pi@mainsailos</text><text x="13.026" y="1.67" class="g">:</text><text x="14.028" y="1.67" class="h">~</text><text x="16.032" y="1.67" class="h">$</text></symbol><symbol id="2"><text y="1.67" class="f">pi@mainsailos</text><text x="13.026" y="1.67" class="g">:</text><text x="14.028" y="1.67" class="h">~</text><text x="16.032" y="1.67" class="h">$</text><text x="18.036" y="1.67" class="g">~/klippy-env/bin/python</text></symbol><symbol id="3"><text y="1.67" class="f">pi@mainsailos</text><text x="13.026" y="1.67" class="g">:</text><text x="14.028" y="1.67" class="h">~</text><text x="16.032" y="1.67" class="h">$</text><text x="18.036" y="1.67" class="g">~/klippy-env/bin/python</text><text x="42.084" y="1.67" class="g">~/klipper/scripts/canbus_query.py</text></symbol><symbol id="4"><text y="1.67" class="f">pi@mainsailos</text><text x="13.026" y="1.67" class="g">:</text><text x="14.028" y="1.67" class="h">~</text><text x="16.032" y="1.67" class="h">$</text><text x="18.036" y="1.67" class="g">~/klippy-env/bin/python</text><text x="42.084" y="1.67" class="g">~/klipper/scripts/canbus_query.py</text><text x="76.152" y="1.67" class="g">can0</text></symbol><symbol id="5"><text y="1.67" class="g">Found</text><text x="6.012" y="1.67" class="g">canbus_uuid=0d8aa3b78eab,</text><text x="32.064" y="1.67" class="g">Application:</text><text x="45.09" y="1.67" class="g">Klipper</text></symbol><symbol id="6"><text y="1.67" class="g">Total</text><text x="6.012" y="1.67" class="g">1</text><text x="8.016" y="1.67" class="g">uuids</text><text x="14.028" y="1.67" class="g">found</text></symbol><symbol id="a"><path fill="transparent" d="M0 0h80v8H0z"/></symbol><symbol id="b"><path fill="#6f7683" d="M0 0h1.102v2.171H0z"/></symbol></defs><path class="a" d="M0 0h80v15.197H0z"/><g style="animation-duration:15s;animation-iteration-count:infinite;animation-name:k;animation-timing-function:steps(1,end)"><svg width="5520"><svg><use xlink:href="#a"/><use xlink:href="#b" x="-.004"/></svg><svg x="80"><use xlink:href="#a"/><use xlink:href="#b" x="17.996"/><use xlink:href="#1"/></svg><svg x="160"><use xlink:href="#a"/><use xlink:href="#b" x="18.996"/><text y="1.67" class="f">pi@mainsailos</text><text x="13.026" y="1.67" class="g">:</text><text x="14.028" y="1.67" class="h">~</text><text x="16.032" y="1.67" class="h">$</text><text x="18.036" y="1.67" class="g">~</text></svg><svg x="240"><use xlink:href="#a"/><use xlink:href="#b" x="19.996"/><text y="1.67" class="f">pi@mainsailos</text><text x="13.026" y="1.67" class="g">:</text><text x="14.028" y="1.67" class="h">~</text><text x="16.032" y="1.67" class="h">$</text><text x="18.036" y="1.67" class="g">~/</text></svg><svg x="320"><use xlink:href="#a"/><use xlink:href="#b" x="20.996"/><text y="1.67" class="f">pi@mainsailos</text><text x="13.026" y="1.67" class="g">:</text><text x="14.028" y="1.67" class="h">~</text><text x="16.032" y="1.67" class="h">$</text><text x="18.036" y="1.67" class="g">~/k</text></svg><svg x="400"><use xlink:href="#a"/><use xlink:href="#b" x="21.996"/><text y="1.67" class="f">pi@mainsailos</text><text x="13.026" y="1.67" class="g">:</text><text x="14.028" y="1.67" class="h">~</text><text x="16.032" y="1.67" class="h">$</text><text x="18.036" y="1.67" class="g">~/kl</text></svg><svg x="480"><use xlink:href="#a"/><use xlink:href="#b" x="22.996"/><text y="1.67" class="f">pi@mainsailos</text><text x="13.026" y="1.67" class="g">:</text><text x="14.028" y="1.67" class="h">~</text><text x="16.032" y="1.67" class="h">$</text><text x="18.036" y="1.67" class="g">~/kli</text></svg><svg x="560"><use xlink:href="#a"/><use xlink:href="#b" x="23.996"/><text y="1.67" class="f">pi@mainsailos</text><text x="13.026" y="1.67" class="g">:</text><text x="14.028" y="1.67" class="h">~</text><text x="16.032" y="1.67" class="h">$</text><text x="18.036" y="1.67" class="g">~/klip</text></svg><svg x="640"><use xlink:href="#a"/><use xlink:href="#b" x="24.996"/><text y="1.67" class="f">pi@mainsailos</text><text x="13.026" y="1.67" class="g">:</text><text x="14.028" y="1.67" class="h">~</text><text x="16.032" y="1.67" class="h">$</text><text x="18.036" y="1.67" class="g">~/klipp</text></svg><svg x="720"><use xlink:href="#a"/><use xlink:href="#b" x="25.996"/><text y="1.67" class="f">pi@mainsailos</text><text x="13.026" y="1.67" class="g">:</text><text x="14.028" y="1.67" class="h">~</text><text x="16.032" y="1.67" class="h">$</text><text x="18.036" y="1.67" class="g">~/klippy</text></svg><svg x="800"><use xlink:href="#a"/><use xlink:href="#b" x="26.996"/><text y="1.67" class="f">pi@mainsailos</text><text x="13.026" y="1.67" class="g">:</text><text x="14.028" y="1.67" class="h">~</text><text x="16.032" y="1.67" class="h">$</text><text x="18.036" y="1.67" class="g">~/klippy-</text></svg><svg x="880"><use xlink:href="#a"/><use xlink:href="#b" x="27.996"/><text y="1.67" class="f">pi@mainsailos</text><text x="13.026" y="1.67" class="g">:</text><text x="14.028" y="1.67" class="h">~</text><text x="16.032" y="1.67" class="h">$</text><text x="18.036" y="1.67" class="g">~/klippy-e</text></svg><svg x="960"><use xlink:href="#a"/><use xlink:href="#b" x="28.996"/><text y="1.67" class="f">pi@mainsailos</text><text x="13.026" y="1.67" class="g">:</text><text x="14.028" y="1.67" class="h">~</text><text x="16.032" y="1.67" class="h">$</text><text x="18.036" y="1.67" class="g">~/klippy-en</text></svg><svg x="1040"><use xlink:href="#a"/><use xlink:href="#b" x="29.996"/><text y="1.67" class="f">pi@mainsailos</text><text x="13.026" y="1.67" class="g">:</text><text x="14.028" y="1.67" class="h">~</text><text x="16.032" y="1.67" class="h">$</text><text x="18.036" y="1.67" class="g">~/klippy-env</text></svg><svg x="1120"><use xlink:href="#a"/><use xlink:href="#b" x="30.996"/><text y="1.67" class="f">pi@mainsailos</text><text x="13.026" y="1.67" class="g">:</text><text x="14.028" y="1.67" class="h">~</text><text x="16.032" y="1.67" class="h">$</text><text x="18.036" y="1.67" class="g">~/klippy-env/</text></svg><svg x="1200"><use xlink:href="#a"/><use xlink:href="#b" x="31.996"/><text y="1.67" class="f">pi@mainsailos</text><text x="13.026" y="1.67" class="g">:</text><text x="14.028" y="1.67" class="h">~</text><text x="16.032" y="1.67" class="h">$</text><text x="18.036" y="1.67" class="g">~/klippy-env/b</text></svg><svg x="1280"><use xlink:href="#a"/><use xlink:href="#b" x="32.996"/><text y="1.67" class="f">pi@mainsailos</text><text x="13.026" y="1.67" class="g">:</text><text x="14.028" y="1.67" class="h">~</text><text x="16.032" y="1.67" class="h">$</text><text x="18.036" y="1.67" class="g">~/klippy-env/bi</text></svg><svg x="1360"><use xlink:href="#a"/><use xlink:href="#b" x="33.996"/><text y="1.67" class="f">pi@mainsailos</text><text x="13.026" y="1.67" class="g">:</text><text x="14.028" y="1.67" class="h">~</text><text x="16.032" y="1.67" class="h">$</text><text x="18.036" y="1.67" class="g">~/klippy-env/bin</text></svg><svg x="1440"><use xlink:href="#a"/><use xlink:href="#b" x="34.996"/><text y="1.67" class="f">pi@mainsailos</text><text x="13.026" y="1.67" class="g">:</text><text x="14.028" y="1.67" class="h">~</text><text x="16.032" y="1.67" class="h">$</text><text x="18.036" y="1.67" class="g">~/klippy-env/bin/</text></svg><svg x="1520"><use xlink:href="#a"/><use xlink:href="#b" x="35.996"/><text y="1.67" class="f">pi@mainsailos</text><text x="13.026" y="1.67" class="g">:</text><text x="14.028" y="1.67" class="h">~</text><text x="16.032" y="1.67" class="h">$</text><text x="18.036" y="1.67" class="g">~/klippy-env/bin/p</text></svg><svg x="1600"><use xlink:href="#a"/><use xlink:href="#b" x="36.996"/><text y="1.67" class="f">pi@mainsailos</text><text x="13.026" y="1.67" class="g">:</text><text x="14.028" y="1.67" class="h">~</text><text x="16.032" y="1.67" class="h">$</text><text x="18.036" y="1.67" class="g">~/klippy-env/bin/py</text></svg><svg x="1680"><use xlink:href="#a"/><use xlink:href="#b" x="37.996"/><text y="1.67" class="f">pi@mainsailos</text><text x="13.026" y="1.67" class="g">:</text><text x="14.028" y="1.67" class="h">~</text><text x="16.032" y="1.67" class="h">$</text><text x="18.036" y="1.67" class="g">~/klippy-env/bin/pyt</text></svg><svg x="1760"><use xlink:href="#a"/><use xlink:href="#b" x="38.996"/><text y="1.67" class="f">pi@mainsailos</text><text x="13.026" y="1.67" class="g">:</text><text x="14.028" y="1.67" class="h">~</text><text x="16.032" y="1.67" class="h">$</text><text x="18.036" y="1.67" class="g">~/klippy-env/bin/pyth</text></svg><svg x="1840"><use xlink:href="#a"/><use xlink:href="#b" x="39.996"/><text y="1.67" class="f">pi@mainsailos</text><text x="13.026" y="1.67" class="g">:</text><text x="14.028" y="1.67" class="h">~</text><text x="16.032" y="1.67" class="h">$</text><text x="18.036" y="1.67" class="g">~/klippy-env/bin/pytho</text></svg><svg x="1920"><use xlink:href="#a"/><use xlink:href="#b" x="40.996"/><use xlink:href="#2"/></svg><svg x="2000"><use xlink:href="#a"/><use xlink:href="#b" x="41.996"/><use xlink:href="#2"/></svg><svg x="2080"><use xlink:href="#a"/><use xlink:href="#b" x="42.996"/><text y="1.67" class="f">pi@mainsailos</text><text x="13.026" y="1.67" class="g">:</text><text x="14.028" y="1.67" class="h">~</text><text x="16.032" y="1.67" class="h">$</text><text x="18.036" y="1.67" class="g">~/klippy-env/bin/python</text><text x="42.084" y="1.67" class="g">~</text></svg><svg x="2160"><use xlink:href="#a"/><use xlink:href="#b" x="43.996"/><text y="1.67" class="f">pi@mainsailos</text><text x="13.026" y="1.67" class="g">:</text><text x="14.028" y="1.67" class="h">~</text><text x="16.032" y="1.67" class="h">$</text><text x="18.036" y="1.67" class="g">~/klippy-env/bin/python</text><text x="42.084" y="1.67" class="g">~/</text></svg><svg x="2240"><use xlink:href="#a"/><use xlink:href="#b" x="44.996"/><text y="1.67" class="f">pi@mainsailos</text><text x="13.026" y="1.67" class="g">:</text><text x="14.028" y="1.67" class="h">~</text><text x="16.032" y="1.67" class="h">$</text><text x="18.036" y="1.67" class="g">~/klippy-env/bin/python</text><text x="42.084" y="1.67" class="g">~/k</text></svg><svg x="2320"><use xlink:href="#a"/><use xlink:href="#b" x="45.996"/><text y="1.67" class="f">pi@mainsailos</text><text x="13.026" y="1.67" class="g">:</text><text x="14.028" y="1.67" class="h">~</text><text x="16.032" y="1.67" class="h">$</text><text x="18.036" y="1.67" class="g">~/klippy-env/bin/python</text><text x="42.084" y="1.67" class="g">~/kl</text></svg><svg x="2400"><use xlink:href="#a"/><use xlink:href="#b" x="46.996"/><text y="1.67" class="f">pi@mainsailos</text><text x="13.026" y="1.67" class="g">:</text><text x="14.028" y="1.67" class="h">~</text><text x="16.032" y="1.67" class="h">$</text><text x="18.036" y="1.67" class="g">~/klippy-env/bin/python</text><text x="42.084" y="1.67" class="g">~/kli</text></svg><svg x="2480"><use xlink:href="#a"/><use xlink:href="#b" x="47.996"/><text y="1.67" class="f">pi@mainsailos</text><text x="13.026" y="1.67" class="g">:</text><text x="14.028" y="1.67" class="h">~</text><text x="16.032" y="1.67" class="h">$</text><text x="18.036" y="1.67" class="g">~/klippy-env/bin/python</text><text x="42.084" y="1.67" class="g">~/klip</text></svg><svg x="2560"><use xlink:href="#a"/><use xlink:href="#b" x="48.996"/><text y="1.67" class="f">pi@mainsailos</text><text x="13.026" y="1.67" class="g">:</text><text x="14.028" y="1.67" class="h">~</text><text x="16.032" y="1.67" class="h">$</text><text x="18.036" y="1.67" class="g">~/klippy-env/bin/python</text><text x="42.084" y="1.67" class="g">~/klipp</text></svg><svg x="2640"><use xlink:href="#a"/><use xlink:href="#b" x="49.996"/><text y="1.67" class="f">pi@mainsailos</text><text x="13.026" y="1.67" class="g">:</text><text x="14.028" y="1.67" class="h">~</text><text x="16.032" y="1.67" class="h">$</text><text x="18.036" y="1.67" class="g">~/klippy-env/bin/python</text><text x="42.084" y="1.67" class="g">~/klippe</text></svg><svg x="2720"><use xlink:href="#a"/><use xlink:href="#b" x="50.996"/><text y="1.67" class="f">pi@mainsailos</text><text x="13.026" y="1.67" class="g">:</text><text x="14.028" y="1.67" class="h">~</text><text x="16.032" y="1.67" class="h">$</text><text x="18.036" y="1.67" class="g">~/klippy-env/bin/python</text><text x="42.084" y="1.67" class="g">~/klipper</text></svg><svg x="2800"><use xlink:href="#a"/><use xlink:href="#b" x="51.996"/><text y="1.67" class="f">pi@mainsailos</text><text x="13.026" y="1.67" class="g">:</text><text x="14.028" y="1.67" class="h">~</text><text x="16.032" y="1.67" class="h">$</text><text x="18.036" y="1.67" class="g">~/klippy-env/bin/python</text><text x="42.084" y="1.67" class="g">~/klipper/</text></svg><svg x="2880"><use xlink:href="#a"/><use xlink:href="#b" x="52.996"/><text y="1.67" class="f">pi@mainsailos</text><text x="13.026" y="1.67" class="g">:</text><text x="14.028" y="1.67" class="h">~</text><text x="16.032" y="1.67" class="h">$</text><text x="18.036" y="1.67" class="g">~/klippy-env/bin/python</text><text x="42.084" y="1.67" class="g">~/klipper/s</text></svg><svg x="2960"><use xlink:href="#a"/><use xlink:href="#b" x="53.996"/><text y="1.67" class="f">pi@mainsailos</text><text x="13.026" y="1.67" class="g">:</text><text x="14.028" y="1.67" class="h">~</text><text x="16.032" y="1.67" class="h">$</text><text x="18.036" y="1.67" class="g">~/klippy-env/bin/python</text><text x="42.084" y="1.67" class="g">~/klipper/sc</text></svg><svg x="3040"><use xlink:href="#a"/><use xlink:href="#b" x="54.996"/><text y="1.67" class="f">pi@mainsailos</text><text x="13.026" y="1.67" class="g">:</text><text x="14.028" y="1.67" class="h">~</text><text x="16.032" y="1.67" class="h">$</text><text x="18.036" y="1.67" class="g">~/klippy-env/bin/python</text><text x="42.084" y="1.67" class="g">~/klipper/scr</text></svg><svg x="3120"><use xlink:href="#a"/><use xlink:href="#b" x="55.996"/><text y="1.67" class="f">pi@mainsailos</text><text x="13.026" y="1.67" class="g">:</text><text x="14.028" y="1.67" class="h">~</text><text x="16.032" y="1.67" class="h">$</text><text x="18.036" y="1.67" class="g">~/klippy-env/bin/python</text><text x="42.084" y="1.67" class="g">~/klipper/scri</text></svg><svg x="3200"><use xlink:href="#a"/><use xlink:href="#b" x="56.996"/><text y="1.67" class="f">pi@mainsailos</text><text x="13.026" y="1.67" class="g">:</text><text x="14.028" y="1.67" class="h">~</text><text x="16.032" y="1.67" class="h">$</text><text x="18.036" y="1.67" class="g">~/klippy-env/bin/python</text><text x="42.084" y="1.67" class="g">~/klipper/scrip</text></svg><svg x="3280"><use xlink:href="#a"/><use xlink:href="#b" x="57.996"/><text y="1.67" class="f">pi@mainsailos</text><text x="13.026" y="1.67" class="g">:</text><text x="14.028" y="1.67" class="h">~</text><text x="16.032" y="1.67" class="h">$</text><text x="18.036" y="1.67" class="g">~/klippy-env/bin/python</text><text x="42.084" y="1.67" class="g">~/klipper/script</text></svg><svg x="3360"><use xlink:href="#a"/><use xlink:href="#b" x="58.996"/><text y="1.67" class="f">pi@mainsailos</text><text x="13.026" y="1.67" class="g">:</text><text x="14.028" y="1.67" class="h">~</text><text x="16.032" y="1.67" class="h">$</text><text x="18.036" y="1.67" class="g">~/klippy-env/bin/python</text><text x="42.084" y="1.67" class="g">~/klipper/scripts</text></svg><svg x="3440"><use xlink:href="#a"/><use xlink:href="#b" x="59.996"/><text y="1.67" class="f">pi@mainsailos</text><text x="13.026" y="1.67" class="g">:</text><text x="14.028" y="1.67" class="h">~</text><text x="16.032" y="1.67" class="h">$</text><text x="18.036" y="1.67" class="g">~/klippy-env/bin/python</text><text x="42.084" y="1.67" class="g">~/klipper/scripts/</text></svg><svg x="3520"><use xlink:href="#a"/><use xlink:href="#b" x="60.996"/><text y="1.67" class="f">pi@mainsailos</text><text x="13.026" y="1.67" class="g">:</text><text x="14.028" y="1.67" class="h">~</text><text x="16.032" y="1.67" class="h">$</text><text x="18.036" y="1.67" class="g">~/klippy-env/bin/python</text><text x="42.084" y="1.67" class="g">~/klipper/scripts/c</text></svg><svg x="3600"><use xlink:href="#a"/><use xlink:href="#b" x="61.996"/><text y="1.67" class="f">pi@mainsailos</text><text x="13.026" y="1.67" class="g">:</text><text x="14.028" y="1.67" class="h">~</text><text x="16.032" y="1.67" class="h">$</text><text x="18.036" y="1.67" class="g">~/klippy-env/bin/python</text><text x="42.084" y="1.67" class="g">~/klipper/scripts/ca</text></svg><svg x="3680"><use xlink:href="#a"/><use xlink:href="#b" x="62.996"/><text y="1.67" class="f">pi@mainsailos</text><text x="13.026" y="1.67" class="g">:</text><text x="14.028" y="1.67" class="h">~</text><text x="16.032" y="1.67" class="h">$</text><text x="18.036" y="1.67" class="g">~/klippy-env/bin/python</text><text x="42.084" y="1.67" class="g">~/klipper/scripts/can</text></svg><svg x="3760"><use xlink:href="#a"/><use xlink:href="#b" x="63.996"/><text y="1.67" class="f">pi@mainsailos</text><text x="13.026" y="1.67" class="g">:</text><text x="14.028" y="1.67" class="h">~</text><text x="16.032" y="1.67" class="h">$</text><text x="18.036" y="1.67" class="g">~/klippy-env/bin/python</text><text x="42.084" y="1.67" class="g">~/klipper/scripts/canb</text></svg><svg x="3840"><use xlink:href="#a"/><use xlink:href="#b" x="64.996"/><text y="1.67" class="f">pi@mainsailos</text><text x="13.026" y="1.67" class="g">:</text><text x="14.028" y="1.67" class="h">~</text><text x="16.032" y="1.67" class="h">$</text><text x="18.036" y="1.67" class="g">~/klippy-env/bin/python</text><text x="42.084" y="1.67" class="g">~/klipper/scripts/canbu</text></svg><svg x="3920"><use xlink:href="#a"/><use xlink:href="#b" x="65.996"/><text y="1.67" class="f">pi@mainsailos</text><text x="13.026" y="1.67" class="g">:</text><text x="14.028" y="1.67" class="h">~</text><text x="16.032" y="1.67" class="h">$</text><text x="18.036" y="1.67" class="g">~/klippy-env/bin/python</text><text x="42.084" y="1.67" class="g">~/klipper/scripts/canbus</text></svg><svg x="4000"><use xlink:href="#a"/><use xlink:href="#b" x="66.996"/><text y="1.67" class="f">pi@mainsailos</text><text x="13.026" y="1.67" class="g">:</text><text x="14.028" y="1.67" class="h">~</text><text x="16.032" y="1.67" class="h">$</text><text x="18.036" y="1.67" class="g">~/klippy-env/bin/python</text><text x="42.084" y="1.67" class="g">~/klipper/scripts/canbus_</text></svg><svg x="4080"><use xlink:href="#a"/><use xlink:href="#b" x="67.996"/><text y="1.67" class="f">pi@mainsailos</text><text x="13.026" y="1.67" class="g">:</text><text x="14.028" y="1.67" class="h">~</text><text x="16.032" y="1.67" class="h">$</text><text x="18.036" y="1.67" class="g">~/klippy-env/bin/python</text><text x="42.084" y="1.67" class="g">~/klipper/scripts/canbus_q</text></svg><svg x="4160"><use xlink:href="#a"/><use xlink:href="#b" x="68.996"/><text y="1.67" class="f">pi@mainsailos</text><text x="13.026" y="1.67" class="g">:</text><text x="14.028" y="1.67" class="h">~</text><text x="16.032" y="1.67" class="h">$</text><text x="18.036" y="1.67" class="g">~/klippy-env/bin/python</text><text x="42.084" y="1.67" class="g">~/klipper/scripts/canbus_qu</text></svg><svg x="4240"><use xlink:href="#a"/><use xlink:href="#b" x="69.996"/><text y="1.67" class="f">pi@mainsailos</text><text x="13.026" y="1.67" class="g">:</text><text x="14.028" y="1.67" class="h">~</text><text x="16.032" y="1.67" class="h">$</text><text x="18.036" y="1.67" class="g">~/klippy-env/bin/python</text><text x="42.084" y="1.67" class="g">~/klipper/scripts/canbus_que</text></svg><svg x="4320"><use xlink:href="#a"/><use xlink:href="#b" x="70.996"/><text y="1.67" class="f">pi@mainsailos</text><text x="13.026" y="1.67" class="g">:</text><text x="14.028" y="1.67" class="h">~</text><text x="16.032" y="1.67" class="h">$</text><text x="18.036" y="1.67" class="g">~/klippy-env/bin/python</text><text x="42.084" y="1.67" class="g">~/klipper/scripts/canbus_quer</text></svg><svg x="4400"><use xlink:href="#a"/><use xlink:href="#b" x="71.996"/><text y="1.67" class="f">pi@mainsailos</text><text x="13.026" y="1.67" class="g">:</text><text x="14.028" y="1.67" class="h">~</text><text x="16.032" y="1.67" class="h">$</text><text x="18.036" y="1.67" class="g">~/klippy-env/bin/python</text><text x="42.084" y="1.67" class="g">~/klipper/scripts/canbus_query</text></svg><svg x="4480"><use xlink:href="#a"/><use xlink:href="#b" x="72.996"/><text y="1.67" class="f">pi@mainsailos</text><text x="13.026" y="1.67" class="g">:</text><text x="14.028" y="1.67" class="h">~</text><text x="16.032" y="1.67" class="h">$</text><text x="18.036" y="1.67" class="g">~/klippy-env/bin/python</text><text x="42.084" y="1.67" class="g">~/klipper/scripts/canbus_query.</text></svg><svg x="4560"><use xlink:href="#a"/><use xlink:href="#b" x="73.996"/><text y="1.67" class="f">pi@mainsailos</text><text x="13.026" y="1.67" class="g">:</text><text x="14.028" y="1.67" class="h">~</text><text x="16.032" y="1.67" class="h">$</text><text x="18.036" y="1.67" class="g">~/klippy-env/bin/python</text><text x="42.084" y="1.67" class="g">~/klipper/scripts/canbus_query.p</text></svg><svg x="4640"><use xlink:href="#a"/><use xlink:href="#b" x="74.996"/><use xlink:href="#3"/></svg><svg x="4720"><use xlink:href="#a"/><use xlink:href="#b" x="75.996"/><use xlink:href="#3"/></svg><svg x="4800"><use xlink:href="#a"/><use xlink:href="#b" x="76.996"/><text y="1.67" class="f">pi@mainsailos</text><text x="13.026" y="1.67" class="g">:</text><text x="14.028" y="1.67" class="h">~</text><text x="16.032" y="1.67" class="h">$</text><text x="18.036" y="1.67" class="g">~/klippy-env/bin/python</text><text x="42.084" y="1.67" class="g">~/klipper/scripts/canbus_query.py</text><text x="76.152" y="1.67" class="g">c</text></svg><svg x="4880"><use xlink:href="#a"/><use xlink:href="#b" x="77.996"/><text y="1.67" class="f">pi@mainsailos</text><text x="13.026" y="1.67" class="g">:</text><text x="14.028" y="1.67" class="h">~</text><text x="16.032" y="1.67" class="h">$</text><text x="18.036" y="1.67" class="g">~/klippy-env/bin/python</text><text x="42.084" y="1.67" class="g">~/klipper/scripts/canbus_query.py</text><text x="76.152" y="1.67" class="g">ca</text></svg><svg x="4960"><use xlink:href="#a"/><use xlink:href="#b" x="78.996"/><text y="1.67" class="f">pi@mainsailos</text><text x="13.026" y="1.67" class="g">:</text><text x="14.028" y="1.67" class="h">~</text><text x="16.032" y="1.67" class="h">$</text><text x="18.036" y="1.67" class="g">~/klippy-env/bin/python</text><text x="42.084" y="1.67" class="g">~/klipper/scripts/canbus_query.py</text><text x="76.152" y="1.67" class="g">can</text></svg><svg x="5040"><use xlink:href="#a"/><use xlink:href="#b" x="79.996"/><use xlink:href="#4"/></svg><svg x="5120"><use xlink:href="#a"/><use xlink:href="#b" x="-.004" y="2.146"/><use xlink:href="#4"/></svg><svg x="5200"><use xlink:href="#a"/><use xlink:href="#b" x="-.004" y="4.317"/><use xlink:href="#4"/><use xlink:href="#5" y="2.171"/></svg><svg x="5280"><use xlink:href="#a"/><use xlink:href="#b" x="-.004" y="6.488"/><use xlink:href="#4"/><use xlink:href="#5" y="2.171"/><use xlink:href="#6" y="4.342"/></svg><svg x="5360"><use xlink:href="#a"/><use xlink:href="#b" x="-.004" y="8.659"/><use xlink:href="#4"/><use xlink:href="#5" y="2.171"/><use xlink:href="#6" y="4.342"/><use xlink:href="#1" y="6.513"/></svg><svg x="5440"><use xlink:href="#a"/><use xlink:href="#b" x="-.004" y="8.659"/><use xlink:href="#4"/><use xlink:href="#5" y="2.171"/><use xlink:href="#6" y="4.342"/><use xlink:href="#1" y="6.513"/></svg></svg></g></g></svg></svg>